<svg xmlns="http://www.w3.org/2000/svg" version="1.1" xmlns:xlink="http://www.w3.org/1999/xlink" xmlns:svgjs="http://svgjs.dev/svgjs" viewBox="0 0 5.408595071866115 5.410389412442658"><g transform="matrix(1,0,0,1,0.4507910127396979,2.524233384147143)"><rect width="5.410389412442658" height="5.410389412442658" x="-0.45168818302796954" y="-2.524233384147143" fill="#ffffff"></rect><g><path d=" M 0.815937 0.4988429999999999 C 0.835272 0.26875650000000006 0.6709245 0.16048050000000003 0.46210650000000003 0.1450125 C 0.44663850000000005 0.14307899999999996 0.4311705 0.14307899999999996 0.417636 0.14307899999999996 C 0.274557 0.14307899999999996 0.131478 0.20108400000000004 0.027069000000000003 0.3035595 C 0.013534500000000001 0.3190275 -0.011601 0.34803000000000006 -0.013534500000000001 0.3654314999999999 C 0.003867 0.4060349999999999 -0.015468 0.44083799999999995 0.03867 0.444705 C 0.046404 0.444705 0.054138000000000006 0.44083799999999995 0.058005 0.43890450000000003 C 0.07927350000000001 0.417636 0.07734 0.3963675 0.11407650000000001 0.3634979999999999 C 0.22621950000000002 0.2726234999999999 0.3576975 0.2378205 0.49884300000000004 0.2378205 C 0.6535230000000001 0.24942149999999996 0.723129 0.3306285 0.711528 0.46597349999999993 C 0.69606 0.6631905 0.45630600000000004 0.893277 0.1875495 0.9261465 C 0.1952835 0.9106785 0.201084 0.870075 0.2107515 0.8565405 C 0.23975400000000002 0.8294715 0.305493 0.792735 0.34803 0.777267 C 0.35963100000000003 0.7714664999999999 0.36929850000000003 0.769533 0.3808995 0.765666 L 0.378966 0.765666 C 0.3847665 0.7637325 0.394434 0.7598655 0.402168 0.7598655 C 0.398301 0.7598655 0.39636750000000004 0.7579319999999999 0.39250050000000003 0.7579319999999999 C 0.38670000000000004 0.7579319999999999 0.38283300000000003 0.7579319999999999 0.37703250000000005 0.7579319999999999 C 0.375099 0.7579319999999999 0.37316550000000004 0.7579319999999999 0.36929850000000003 0.7579319999999999 L 0.378966 0.754065 C 0.390567 0.754065 0.413769 0.7521315 0.41956950000000004 0.7443975 L 0.42537 0.7366635 C 0.421503 0.73473 0.43310400000000004 0.7115279999999999 0.4311705 0.7115279999999999 C 0.421503 0.7057275 0.4079685 0.703794 0.39250050000000003 0.703794 C 0.3422295 0.703794 0.2687565 0.726996 0.2455545 0.7405305 C 0.255222 0.699927 0.367365 0.43890450000000003 0.378966 0.3190275 C 0.3808995 0.305493 0.36349800000000004 0.290025 0.34803 0.28809149999999994 C 0.3383625 0.28809149999999994 0.3151605 0.2842244999999999 0.2958255 0.2842244999999999 C 0.286158 0.2842244999999999 0.278424 0.2861579999999999 0.274557 0.28809149999999994 L 0.262956 0.28809149999999994 L 0.255222 0.2919585 C 0.255222 0.2996924999999999 0.2532885 0.30742650000000005 0.255222 0.31516049999999995 C 0.197217 0.49304249999999994 0.1295445 0.6361215 0.07927350000000001 0.7946685 C 0.058005 0.8024025 -0.0096675 0.858474 -0.019335 0.8797425 C -0.019335 0.8836095 -0.030936 0.8990775 -0.0251355 0.9029445 C -0.030936 0.9068115 -0.0251355 0.916479 -0.023202 0.920346 C -0.015468 0.939681 0.019335 0.9764174999999999 0.0251355 0.9880185 C 0.023202 1.020888 0.0019335 1.0885605 0 1.1233635 C -0.007734 1.183302 -0.0096675 1.2741765 0.027069000000000003 1.326381 C 0.03867 1.345716 0.034803 1.3476495 0.046404 1.3631175 C 0.0560715 1.3669845 0.100542 1.380519 0.10827600000000001 1.380519 C 0.11407650000000001 1.380519 0.11601 1.380519 0.11987700000000001 1.3785855 L 0.11407650000000001 1.368918 C 0.11601 1.368918 0.11987700000000001 1.3708515000000001 0.123744 1.3669845 C 0.112143 1.2799770000000001 0.143079 1.1310975 0.1643475 1.0266885000000001 C 0.1720815 1.0266885000000001 0.177882 1.0266885000000001 0.185616 1.0266885000000001 C 0.460173 1.0266885000000001 0.7908015 0.8062695 0.815937 0.4988429999999999 M 1.1736439409179689 0.8256045 C 1.189111940917969 0.8256045 1.2045799409179687 0.8256045 1.2200479409179688 0.827538 L 1.2239149409179688 0.8256045 C 1.2219814409179688 0.8256045 1.2181144409179687 0.8178705 1.2181144409179687 0.8178705 C 1.2181144409179687 0.815937 1.2181144409179687 0.8140035 1.2200479409179688 0.8140035 L 1.2181144409179687 0.8062695 L 1.2239149409179688 0.804336 L 1.2219814409179688 0.8024025 L 1.2413164409179687 0.7869345 C 1.233582440917969 0.769533 1.2007129409179689 0.765666 1.1678434409179688 0.765666 C 1.1446414409179688 0.765666 1.1195059409179688 0.7675995 1.1079049409179689 0.7675995 C 1.0653679409179688 0.7714664999999999 1.0092964409179688 0.7830675 0.9628924409179688 0.7985355 C 0.9744934409179689 0.7792005 0.9764269409179688 0.800469 0.9841609409179688 0.7714664999999999 C 0.9686929409179688 0.746331 0.9338899409179688 0.723129 0.9029539409179688 0.723129 C 0.8932864409179688 0.723129 0.8836189409179688 0.7250624999999999 0.8758849409179688 0.7289295 C 0.8526829409179688 0.7366635 0.6651334409179688 1.0382895 0.6767344409179687 1.2161715 C 0.6786679409179688 1.2896445 0.7424734409179689 1.3360485 0.8120794409179688 1.3360485 C 0.8797519409179688 1.334115 0.9493579409179689 1.233573 0.9725599409179688 1.1775015 C 0.9957619409179688 1.117563 1.030564940917969 0.9957525 1.0266979409179688 0.9300135 C 1.0247644409179688 0.904878 1.0208974409179687 0.8758755 1.0112299409179688 0.8526735 C 1.0615009409179688 0.8410725 1.1137054409179687 0.8294715 1.1736439409179689 0.8256045 M 0.7908109409179688 1.256775 C 0.7888774409179689 1.2200385 0.8140129409179688 1.1156295 0.8410819409179688 1.0382895 C 0.8488159409179687 1.0266885000000001 0.8816854409179689 0.9377475 0.9222889409179689 0.8720085 C 0.9261559409179688 0.881676 0.9300229409179688 0.8874765 0.9300229409179688 0.897144 C 0.9377569409179688 0.9899519999999999 0.8739514409179688 1.1929695 0.8062789409179688 1.264509 C 0.8043454409179688 1.2703095 0.8024119409179689 1.27611 0.7946779409179688 1.27611 C 0.7927444409179688 1.268376 0.7927444409179688 1.2625755 0.7908109409179688 1.256775 M 1.3109101677246093 0.862341 L 1.3070431677246095 0.8604075 L 1.3109101677246093 0.8604075 C 1.3534471677246094 0.6863925 1.4404546677246093 0.522045 1.4404546677246093 0.3383624999999999 C 1.4404546677246093 0.3132269999999999 1.4075851677246094 0.278424 1.3747156677246095 0.278424 C 1.3592476677246095 0.278424 1.3611811677246095 0.2842244999999999 1.3476466677246095 0.2919585 L 1.3457131677246095 0.30162599999999995 C 1.3515136677246093 0.33449550000000006 1.0730896677246093 1.0305555 1.0730896677246093 1.241307 C 1.0730896677246093 1.2819105 1.0846906677246093 1.407588 1.1368951677246093 1.407588 C 1.1504296677246093 1.407588 1.1949001677246094 1.4056545 1.2084346677246094 1.4017875 L 1.2065011677246094 1.3979205000000001 C 1.1968336677246094 1.3940535 1.1910331677246093 1.3863195 1.1871661677246095 1.380519 L 1.1871661677246095 1.3785855 L 1.1949001677246094 1.380519 C 1.1871661677246095 1.368918 1.1832991677246094 1.357317 1.1832991677246094 1.3437825 C 1.1832991677246094 1.3399155 1.1832991677246094 1.3321815 1.1871661677246095 1.3283145 C 1.1871661677246095 1.2741765 1.2142351677246095 1.1968365 1.2297031677246093 1.140765 C 1.2471046677246094 1.1542995 1.2587056677246093 1.1968365 1.2780406677246094 1.2161715 C 1.3244446677246093 1.2664425000000001 1.3824496677246094 1.2973785 1.4520556677246095 1.2973785 L 1.4655901677246095 1.2973785 L 1.4636566677246095 1.2935115 C 1.4539891677246093 1.2935115 1.4327206677246094 1.2857775 1.4230531677246094 1.2857775 L 1.4230531677246094 1.2799770000000001 C 1.4307871677246093 1.2799770000000001 1.4346541677246094 1.2799770000000001 1.4385211677246095 1.2819105 C 1.4443216677246093 1.2819105 1.4501221677246094 1.2819105 1.4539891677246093 1.2857775 C 1.4617231677246094 1.287711 1.4694571677246095 1.2819105 1.4771911677246095 1.2819105 L 1.4733241677246094 1.2799770000000001 C 1.4868586677246094 1.2799770000000001 1.5042601677246095 1.2799770000000001 1.5197281677246095 1.27611 C 1.5216616677246093 1.27611 1.5235951677246093 1.27611 1.5255286677246094 1.27611 C 1.5313291677246095 1.27611 1.5409966677246094 1.2741765 1.5487306677246093 1.2741765 L 1.5506641677246094 1.2741765 C 1.5506641677246094 1.2741765 1.5467971677246095 1.2741765 1.5487306677246093 1.2703095 C 1.5564646677246095 1.268376 1.5622651677246093 1.2664425000000001 1.5699991677246095 1.2587085 L 1.5796666677246094 1.256775 C 1.5680656677246094 1.2432405 1.5545311677246094 1.241307 1.5429301677246094 1.241307 C 1.5313291677246095 1.241307 1.5197281677246095 1.2432405 1.5081271677246093 1.2432405 C 1.3882501677246095 1.2432405 1.3128436677246094 1.129164 1.2935086677246095 1.024755 C 1.3012426677246094 1.0034865 1.4346541677246094 0.8836095 1.4443216677246093 0.881676 C 1.4752576677246094 0.8565405 1.6183366677246094 0.688326 1.6396051677246093 0.6554565 C 1.6550731677246096 0.6245205 1.6705411677246094 0.595518 1.6840756677246094 0.5626485 L 1.6840756677246094 0.556848 L 1.6782751677246095 0.5549145 L 1.6744081677246094 0.5549145 C 1.6666741677246093 0.5510475 1.6628071677246095 0.5471805 1.6589401677246094 0.545247 C 1.6492726677246095 0.5471805 1.6396051677246093 0.549114 1.6299376677246094 0.549114 C 1.6260706677246093 0.549114 1.6260706677246093 0.549114 1.6241371677246095 0.5471805 L 1.6144696677246095 0.5471805 L 1.6086691677246094 0.5549145 C 1.5970681677246095 0.595518 1.3573141677246094 0.815937 1.3109101677246093 0.862341 M 2.1248957299804685 0.9068115 C 2.103627229980469 0.9184125000000001 2.0610902299804685 0.9899519999999999 2.0456222299804687 1.013154 C 1.9914842299804687 1.0924274999999999 1.8155357299804686 1.303179 1.7246612299804687 1.303179 C 1.6163852299804686 1.303179 1.7014592299804687 1.04409 1.7285282299804687 0.9957525 C 1.7323952299804686 0.9880185 1.9547477299804688 0.986085 1.9547477299804688 0.8101365 C 1.9547477299804688 0.765666 1.9354127299804686 0.7521315 1.8967427299804687 0.7405305 C 1.8851417299804687 0.73473 1.8252032299804686 0.7134615 1.8116687299804686 0.7134615 C 1.8039347299804687 0.7134615 1.7787992299804687 0.7134615 1.7768657299804687 0.719262 L 1.7749322299804686 0.723129 C 1.6724567299804687 0.8024025 1.5583802299804685 1.0266885000000001 1.5506462299804686 1.1620335 C 1.5448457299804685 1.2819105 1.6125182299804686 1.357317 1.7343287299804686 1.3747185 C 1.7381957299804687 1.3747185 1.7420627299804687 1.376652 1.7478632299804686 1.376652 C 1.8600062299804687 1.376652 2.049489229980469 1.1659005 2.0997602299804687 1.0382895 C 2.1055607299804686 1.0189545 2.1248957299804685 0.9976860000000001 2.1268292299804687 0.9725505 L 2.1229622299804687 0.96675 C 2.1229622299804687 0.96675 2.117161729980469 0.9648165 2.117161729980469 0.9628829999999999 C 2.117161729980469 0.9532155 2.1268292299804687 0.939681 2.1268292299804687 0.92808 L 2.1229622299804687 0.920346 C 2.1248957299804685 0.916479 2.1248957299804685 0.9106785 2.1248957299804685 0.9068115 M 1.8561392299804687 0.792735 C 1.8948092299804686 0.8333385 1.8445382299804687 0.9029445 1.7633312299804687 0.920346 C 1.7865332299804686 0.8797425 1.8387377299804686 0.8024025 1.8561392299804687 0.792735 M 2.550210028564453 0.8372055 L 2.550210028564453 0.8333385 C 2.550210028564453 0.8333385 2.554077028564453 0.8024025 2.554077028564453 0.7985355 L 2.554077028564453 0.792735 C 2.550210028564453 0.7869345 2.556010528564453 0.7792005 2.552143528564453 0.769533 C 2.554077028564453 0.7637325 2.548276528564453 0.746331 2.5424760285644528 0.7405305 L 2.530875028564453 0.73473 L 2.519274028564453 0.73473 C 2.509606528564453 0.7327965 2.503806028564453 0.7289295 2.496072028564453 0.7289295 C 2.389729528564453 0.7289295 2.294988028564453 0.8642745 2.242783528564453 0.9454815000000001 C 2.227315528564453 0.9725505 2.215714528564453 0.9841515000000001 2.204113528564453 1.0073535 C 2.2253820285644528 0.9222795 2.277586528564453 0.7579319999999999 2.277586528564453 0.6941265 C 2.277586528564453 0.6786584999999999 2.258251528564453 0.661257 2.223448528564453 0.6554565 C 2.215714528564453 0.653523 2.206047028564453 0.6515894999999999 2.196379528564453 0.6515894999999999 C 2.190579028564453 0.6515894999999999 2.184778528564453 0.653523 2.180911528564453 0.6554565 L 2.157709528564453 0.7289295 C 2.111305528564453 0.873942 2.033965528564453 1.105962 2.033965528564453 1.256775 C 2.033965528564453 1.326381 2.0533005285644528 1.3283145 2.107438528564453 1.3669845 C 2.113239028564453 1.3669845 2.115172528564453 1.372785 2.119039528564453 1.372785 L 2.124840028564453 1.3708515000000001 L 2.130640528564453 1.372785 C 2.144175028564453 1.3708515000000001 2.155776028564453 1.357317 2.161576528564453 1.3476495 C 2.184778528564453 1.3089795 2.192512528564453 1.264509 2.207980528564453 1.218105 C 2.260185028564453 1.071159 2.333658028564453 0.9029445 2.470936528564453 0.81207 C 2.482537528564453 0.8024025 2.507673028564453 0.7908015 2.521207528564453 0.7908015 C 2.525074528564453 0.7908015 2.5424760285644528 0.827538 2.550210028564453 0.8372055 M 3.1360869631347654 0.6631905 C 3.0432789631347656 0.9106785 2.9582049631347656 1.2123045000000001 2.9736729631347654 1.3979205000000001 C 2.9775399631347654 1.473327 3.0007419631347654 1.5603345 3.0742149631347653 1.5912705 L 3.0974169631347657 1.593204 L 3.1051509631347654 1.600938 L 3.1167519631347655 1.6028715 L 3.1148184631347653 1.5951375 L 3.1264194631347655 1.5990045 L 3.1264194631347655 1.5912705 C 3.1302864631347656 1.589337 3.1380204631347652 1.5874035 3.1399539631347655 1.5874035 C 3.1438209631347656 1.5874035 3.147687963134765 1.5874035 3.1534884631347655 1.589337 L 3.1631559631347654 1.577736 L 3.1592889631347654 1.5758025 C 3.1650894631347652 1.5719355 3.1728234631347654 1.5700020000000001 3.174756963134765 1.5642015 C 3.174756963134765 1.5642015 3.1824909631347653 1.558401 3.1824909631347653 1.5564675000000001 L 3.1824909631347653 1.554534 C 3.1708899631347656 1.5642015 3.1554219631347653 1.5700020000000001 3.1418874631347653 1.5719355 C 3.1360869631347654 1.5719355 3.1302864631347656 1.5680685 3.120618963134765 1.5642015 C 3.1032174631347655 1.554534 3.0954834631347654 1.488795 3.093549963134765 1.4675265 C 3.0722814631347655 1.187169 3.255963963134765 0.638055 3.3681069631347653 0.36156450000000007 L 3.3449049631347654 0.34803000000000006 C 3.3333039631347656 0.33449550000000006 3.3062349631347656 0.3248279999999999 3.2868999631347653 0.3190275 C 3.2791659631347656 0.32289449999999986 3.2482299631347655 0.3306285 3.2482299631347655 0.34609650000000003 C 3.2482299631347655 0.34803000000000006 3.2443629631347655 0.36156450000000007 3.2462964631347653 0.3634979999999999 C 3.255963963134765 0.38089949999999995 3.2095599631347653 0.47950799999999993 3.1979589631347656 0.5007765 C 3.1360869631347654 0.6206535 2.8711974631347656 0.792735 2.7068499631347653 0.8720085 C 2.7029829631347653 0.870075 2.7010494631347655 0.8642745 2.7010494631347655 0.8604075 C 2.6952489631347656 0.81207 2.9446704631347655 0.17594850000000006 2.9852739631347656 0.13341150000000002 C 2.9930079631347652 0.22041899999999992 2.8595964631347655 0.5394464999999999 2.8267269631347656 0.6283875 C 2.8170594631347656 0.649656 2.8073919631347652 0.6825255 2.7957909631347655 0.699927 C 2.8015914631347654 0.699927 2.8054584631347654 0.699927 2.8131924631347656 0.6979935 C 2.911800963134765 0.5974515 3.0780819631347653 0.2320199999999999 3.0626139631347655 0.08507399999999987 C 3.0626139631347655 0.0734729999999999 3.0606804631347653 0.06380549999999996 3.0606804631347653 0.05607150000000005 C 3.056813463134765 0.03673649999999995 2.9852739631347656 0 2.9698059631347653 0.003866999999999843 L 2.9620719631347656 0.003866999999999843 C 2.9466039631347654 0.003866999999999843 2.9272689631347655 0.011600999999999972 2.9214684631347656 0.017401499999999848 C 2.911800963134765 0.040603500000000015 2.884731963134765 0.07153949999999987 2.8711974631347656 0.09474150000000003 C 2.7474534631347654 0.290025 2.6372439631347655 0.5781165 2.5715049631347653 0.7946685 C 2.5637709631347656 0.804336 2.5579704631347653 0.835272 2.5502364631347656 0.8410725 C 2.540568963134765 0.8488065 2.5328349631347655 0.846873 2.5231674631347656 0.85074 L 2.5231674631347656 0.8526735 C 2.5231674631347656 0.858474 2.5444359631347653 0.8681415 2.5463694631347655 0.870075 C 2.5444359631347653 0.873942 2.5251009631347654 0.9377475 2.5231674631347656 0.9493484999999999 C 2.4535614631347653 1.1697675 2.405223963134765 1.415322 2.4226254631347652 1.616406 C 2.432292963134765 1.7324160000000002 2.4786969631347655 1.925766 2.6256429631347653 1.925766 C 2.6295099631347654 1.9238325 2.631443463134765 1.9238325 2.6372439631347655 1.9238325 L 2.6623794631347653 1.9160985 C 2.6971824631347654 1.9141650000000001 2.7455199631347655 1.8967635 2.7551874631347655 1.871628 C 2.7803229631347652 1.8464925 2.8131924631347656 1.790421 2.8247934631347653 1.7575515 L 2.8228599631347655 1.7652855 L 2.8247934631347653 1.763352 C 2.8827984631347654 1.6492755000000001 2.8924659631347653 1.403721 2.8711974631347656 1.287711 C 2.8518624631347653 1.2045705 2.830593963134765 1.0924274999999999 2.7957909631347655 1.0150875 L 2.7725889631347655 0.9609495 C 2.7667884631347652 0.9532155 2.7609879631347654 0.939681 2.7571209631347653 0.9319470000000001 C 2.7551874631347655 0.9300135 2.7532539631347652 0.9261465 2.7474534631347654 0.920346 C 2.8653969631347653 0.8642745 3.0258774631347656 0.769533 3.1360869631347654 0.6631905 M 2.7551874631347655 1.357317 C 2.7667884631347652 1.484928 2.7455199631347655 1.6512090000000001 2.6913819631347655 1.7691525000000001 C 2.6836479631347654 1.790421 2.6643129631347655 1.8348915000000001 2.6391774631347653 1.8368250000000002 C 2.6372439631347655 1.8368250000000002 2.6353104631347652 1.8368250000000002 2.6333769631347654 1.8368250000000002 C 2.5695714631347655 1.8368250000000002 2.5560369631347655 1.697613 2.5502364631347656 1.658943 C 2.5463694631347655 1.6222065 2.5560369631347655 1.5835365000000001 2.5521699631347654 1.5487335 C 2.5521699631347654 1.5468 2.5502364631347656 1.5409995 2.5502364631347656 1.5371325 C 2.5695714631347655 1.3012455 2.631443463134765 1.0460235 2.6623794631347653 0.9648165 C 2.7145839631347655 1.0885605 2.7435864631347653 1.221972 2.7551874631347655 1.357317 M 3.7432352299804683 0.8256045 C 3.7587032299804686 0.8256045 3.7741712299804684 0.8256045 3.7896392299804686 0.827538 L 3.7935062299804683 0.8256045 C 3.7915727299804685 0.8256045 3.7877057299804684 0.8178705 3.7877057299804684 0.8178705 C 3.7877057299804684 0.815937 3.7877057299804684 0.8140035 3.7896392299804686 0.8140035 L 3.7877057299804684 0.8062695 L 3.7935062299804683 0.804336 L 3.7915727299804685 0.8024025 L 3.8109077299804683 0.7869345 C 3.8031737299804687 0.769533 3.7703042299804683 0.765666 3.7374347299804684 0.765666 C 3.7142327299804685 0.765666 3.6890972299804687 0.7675995 3.6774962299804685 0.7675995 C 3.6349592299804687 0.7714664999999999 3.5788877299804684 0.7830675 3.5324837299804686 0.7985355 C 3.5440847299804683 0.7792005 3.5460182299804686 0.800469 3.5537522299804687 0.7714664999999999 C 3.5382842299804684 0.746331 3.5034812299804683 0.723129 3.4725452299804687 0.723129 C 3.4628777299804683 0.723129 3.4532102299804683 0.7250624999999999 3.4454762299804687 0.7289295 C 3.4222742299804683 0.7366635 3.2347247299804684 1.0382895 3.2463257299804686 1.2161715 C 3.2482592299804685 1.2896445 3.3120647299804684 1.3360485 3.3816707299804687 1.3360485 C 3.4493432299804683 1.334115 3.5189492299804686 1.233573 3.5421512299804685 1.1775015 C 3.5653532299804684 1.117563 3.6001562299804686 0.9957525 3.5962892299804685 0.9300135 C 3.5943557299804683 0.904878 3.5904887299804686 0.8758755 3.5808212299804687 0.8526735 C 3.6310922299804687 0.8410725 3.6832967299804684 0.8294715 3.7432352299804683 0.8256045 M 3.3604022299804686 1.256775 C 3.3584687299804683 1.2200385 3.3836042299804685 1.1156295 3.4106732299804685 1.0382895 C 3.4184072299804686 1.0266885000000001 3.4512767299804685 0.9377475 3.4918802299804685 0.8720085 C 3.4957472299804686 0.881676 3.4996142299804687 0.8874765 3.4996142299804687 0.897144 C 3.5073482299804684 0.9899519999999999 3.4435427299804684 1.1929695 3.3758702299804684 1.264509 C 3.3739367299804686 1.2703095 3.3720032299804683 1.27611 3.3642692299804686 1.27611 C 3.3623357299804684 1.268376 3.3623357299804684 1.2625755 3.3604022299804686 1.256775 M 4.097053456787109 0.7289295 C 4.079651956787109 0.730863 4.0680509567871095 0.746331 4.062250456787109 0.754065 C 4.025513956787109 0.804336 3.990710956787109 0.870075 3.9617084567871093 0.92808 C 3.899836456787109 1.036356 3.818629456787109 1.221972 3.7896269567871093 1.2587085 C 3.7896269567871093 1.1542995 3.812828956787109 1.047957 3.839897956787109 0.9493484999999999 C 3.8824349567871095 0.8372055 3.8979029567871093 0.7521315 3.8940359567871092 0.7115279999999999 C 3.890168956787109 0.65739 3.8553659567871095 0.6515894999999999 3.8108954567871094 0.6515894999999999 C 3.7973609567871094 0.6515894999999999 3.785759956787109 0.6515894999999999 3.7780259567871095 0.653523 C 3.7760924567871093 0.653523 3.772225456787109 0.6554565 3.772225456787109 0.6593235 C 3.772225456787109 0.661257 3.772225456787109 0.661257 3.7760924567871093 0.661257 C 3.7780259567871095 0.7095945 3.718087456787109 0.8836095 3.6987524567871093 0.9725505 C 3.6852179567871093 1.032489 3.6620159567871093 1.129164 3.663949456787109 1.1891025 C 3.6697499567871095 1.2587085 3.7296884567871094 1.345716 3.8070284567871093 1.345716 C 3.8321639567871095 1.345716 3.853432456787109 1.334115 3.8708339567871093 1.3089795 C 3.953974456787109 1.1852355 4.0139129567871095 1.0305555 4.081585456787109 0.8952105 C 4.0583834567871095 1.0073535 4.042915456787109 1.129164 4.054516456787109 1.2509745 C 4.0583834567871095 1.2935115 4.104787456787109 1.3669845 4.1589254567871095 1.3669845 C 4.16665945678711 1.3669845 4.178260456787109 1.3669845 4.187927956787109 1.3669845 C 4.269134956787109 1.3669845 4.367743456787109 1.0460235 4.39287895678711 0.9764174999999999 C 4.4392829567871095 0.982218 4.462484956787109 0.9841515000000001 4.479886456787109 0.9841515000000001 C 4.49922145678711 0.9841515000000001 4.512755956787109 0.982218 4.543691956787109 0.974484 L 4.5475589567871095 0.9686835 C 4.541758456787109 0.9686835 4.534024456787109 0.9628829999999999 4.53595795678711 0.955149 L 4.55529295678711 0.9570825000000001 L 4.553359456787109 0.951282 L 4.570760956787109 0.939681 C 4.568827456787109 0.939681 4.5842954567871095 0.9222795 4.58236195678711 0.9222795 C 4.578494956787109 0.9222795 4.576561456787109 0.9222795 4.57269445678711 0.9222795 C 4.512755956787109 0.916479 4.462484956787109 0.9145455 4.408346956787109 0.9029445 C 4.416080956787109 0.885543 4.416080956787109 0.8604075 4.414147456787109 0.835272 C 4.414147456787109 0.819804 4.400612956787109 0.7985355 4.379344456787109 0.7985355 C 4.3754774567871095 0.7985355 4.371610456787109 0.7985355 4.367743456787109 0.800469 C 4.315538956787109 0.8178705 4.30200445678711 0.881676 4.305871456787109 0.9377475 C 4.305871456787109 0.9454815000000001 4.31167195678711 0.955149 4.309738456787109 0.9648165 C 4.280735956787109 1.0769595 4.182127456787109 1.287711 4.170526456787109 1.2896445 C 4.16665945678711 1.233573 4.164725956787109 1.1581665 4.1763269567871095 1.0614915 C 4.19372845678711 0.904878 4.209196456787109 0.881676 4.209196456787109 0.788868 C 4.209196456787109 0.777267 4.199528956787109 0.7637325 4.199528956787109 0.754065 C 4.187927956787109 0.7327965 4.178260456787109 0.7211955 4.155058456787109 0.7211955 C 4.141523956787109 0.7211955 4.108654456787109 0.7211955 4.097053456787109 0.7289295" fill="#382d5e" fill-rule="nonzero"></path></g><g><path d=" M 0.5589880852168116 2.288887951534996 C 0.5631731441888351 2.3307385412552306 0.5637710097562671 2.351065970547916 0.5667603375934267 2.392318694700719 C 0.5679560687282905 2.405471737184221 0.5715432621328821 2.4210162419374512 0.5876856324535441 2.4210162419374512 C 0.5978493470998868 2.4210162419374512 0.6026322716393422 2.415635451830564 0.6014365405044784 2.405471737184221 C 0.6008386749370465 2.392916560268151 0.5972514815324549 2.3797635177846486 0.596055750397591 2.367208340868578 C 0.5918706914255676 2.320574826608888 0.5906749602907037 2.273941312349198 0.5864899013186802 2.226709932522076 L 0.5793155145094971 2.144802349783902 C 0.5757283211049056 2.1214855926540572 0.5751304555374737 2.099962432226508 0.5751304555374737 2.076645675096663 C 0.5739347244026098 2.06648196045032 0.5631731441888351 2.057513976938841 0.5518136984076286 2.057513976938841 C 0.541052118193854 2.057513976938841 0.5368670592218305 2.059307573641137 0.5344755969521028 2.068275557152616 C 0.5320841346823751 2.077841406231527 0.5314862691149431 2.0927880454173247 0.5296926724126474 2.1017560289288038 C 0.5189310921988728 2.15018313989079 0.46273172886027186 2.3749805932451933 0.46691678783229534 2.4126461239934045 C 0.46751465339972725 2.4204183763700193 0.4824612925855254 2.4281906287466346 0.4884399482598446 2.4281906287466346 C 0.49681006620389156 2.4281906287466346 0.49979939404105117 2.4204183763700193 0.5003972596084831 2.4132439895608364 C 0.500995125175915 2.4048738716167892 0.49860366290618735 2.3959058881053106 0.500995125175915 2.3881336357286953 C 0.5063759152828023 2.3486745082781884 0.5087673775525301 2.329542810120367 0.5189310921988728 2.2912794138047237 C 0.5273012101429198 2.29008368266986 0.5344755969521028 2.29008368266986 0.5428457148961497 2.29008368266986 C 0.548824370570469 2.29008368266986 0.5542051606773563 2.29008368266986 0.5589880852168116 2.288887951534996 M 0.5506179672727648 2.154966064430245 L 0.5559987573796521 2.2589946731633996 C 0.5518136984076286 2.2607882698656954 0.5470307738681732 2.2619840010005596 0.5422478493287178 2.2619840010005596 C 0.5380627903566944 2.2619840010005596 0.5296926724126474 2.2613861354331277 0.5261054790080558 2.2601904042982635 C 0.5314862691149431 2.2314928570615313 0.541052118193854 2.183663611666977 0.548226505003037 2.154966064430245 M 0.658541459990625 2.0628947670457287 C 0.6531606698837377 2.0628947670457287 0.6435948208048269 2.0646883637480244 0.642996955237395 2.0706670194223435 C 0.6418012241025312 2.074852078394367 0.6471820142094185 2.0814285996361184 0.6471820142094185 2.0856136586081417 C 0.6483777453442823 2.1107240124402824 0.642996955237395 2.172902031453203 0.6382140306979396 2.2243184702523484 C 0.6328332405910523 2.2805178335909493 0.6280503160515969 2.35226170168278 0.6280503160515969 2.4084610650213807 C 0.6280503160515969 2.422809838639747 0.634626837293348 2.432375687718658 0.6501713420465781 2.43297355328609 C 0.6609329222603527 2.43297355328609 0.6609329222603527 2.424005569774611 0.6609329222603527 2.415635451830564 C 0.6615307878277846 2.407265333886517 0.658541459990625 2.399493081509902 0.658541459990625 2.3905250979984234 C 0.6597371911254889 2.3642190130314185 0.6615307878277846 2.3134004397997048 0.6645201156649443 2.2870943548327003 C 0.7153386888966579 2.266169059972583 0.746427698403118 2.1902401329087287 0.7470255639705499 2.1489874087559255 C 0.7482212951054137 2.089798717580165 0.7039792431154512 2.0640904981805925 0.658541459990625 2.0628947670457287 M 0.6812603515530381 2.0921901798498928 C 0.7045771086828831 2.0933859109847566 0.7183280167338175 2.116702668114602 0.7177301511663855 2.1489874087559255 C 0.7177301511663855 2.1752934937229305 0.6991963185759958 2.22790566365694 0.66631371236724 2.2530160174890805 C 0.6704987713392635 2.201599578689935 0.6776731581484466 2.1424108875141745 0.6812603515530381 2.0921901798498928 M 0.7748260209295877 2.078439271798959 C 0.7748260209295877 2.082624330770982 0.7831961388736347 2.084417927473278 0.7837940044410666 2.1023538944962357 C 0.7849897355759304 2.1196919959517615 0.7790110799016112 2.1740977625880666 0.7778153487667473 2.1920337296110244 C 0.7754238864970197 2.24046084057301 0.7736302897947238 2.288887951534996 0.7718366930924281 2.337912928064414 C 0.7706409619575643 2.361229685194259 0.7694452308227004 2.3851443078915358 0.7700430963901324 2.409058930588813 C 0.7706409619575643 2.4252013009094746 0.7778153487667473 2.4287884943140665 0.7927619879525455 2.4287884943140665 C 0.7999363747617285 2.4287884943140665 0.8011321058965923 2.415635451830564 0.8005342403291604 2.398297350375038 C 0.7999363747617285 2.3707955342731695 0.8023278370314563 2.334325734659822 0.8029257025988882 2.3259556167157753 C 0.8035235681663201 2.3098132463951133 0.8053171648686158 2.298453800613907 0.8053171648686158 2.2769306401863574 C 0.8148830139475267 2.2972580694790428 0.8447762923191229 2.3719912654080337 0.8692887805838317 2.375578458812625 C 0.8704845117186957 2.375578458812625 0.8716802428535595 2.375578458812625 0.8728759739884233 2.375578458812625 C 0.8782567640953106 2.375578458812625 0.8842354197696298 2.3731869965428976 0.8818439574999022 2.36780620643601 C 0.8776588985278787 2.360033954059395 0.8567336036677613 2.322966288878616 0.8411890989145313 2.2870943548327003 C 0.8399933677796675 2.2841050269955407 0.828036056431029 2.2518202863542167 0.8250467285938694 2.248830958517057 C 0.8447762923191229 2.226112066954644 0.8716802428535595 2.1914358640435925 0.8704845117186957 2.1442044842164703 C 0.8692887805838317 2.090994448715029 0.8381997710773716 2.078439271798959 0.8256445941613013 2.068275557152616 C 0.8208616696218459 2.0599054392085687 0.8142851483800947 2.0545246491016815 0.804121433733752 2.0545246491016815 C 0.7897726601153858 2.0551225146691134 0.7837940044410666 2.068275557152616 0.7748260209295877 2.078439271798959 M 0.8077086271383436 2.2189376801454608 C 0.8101000894080712 2.193229460745888 0.8154808795149586 2.129855710598104 0.8172744762172544 2.1041474911985314 C 0.828036056431029 2.105941087900827 0.8411890989145313 2.122083458221489 0.8405912333470994 2.145400215351334 C 0.8393955022122356 2.17828282156009 0.8220574007567097 2.2087739654991183 0.8077086271383436 2.2189376801454608 M 0.9323796539079627 2.082624330770982 C 0.9174330147221647 2.090994448715029 0.9186287458570285 2.090994448715029 0.9168351491547326 2.106538953468259 C 0.9114543590478453 2.1645319135091556 0.9048778378060942 2.223720604684916 0.9006927788340707 2.281713564725813 C 0.8977034509969111 2.3187812299065924 0.8965077198620472 2.3570446262222355 0.8965077198620472 2.3947101569704468 C 0.8965077198620472 2.4030802749144935 0.898899182131775 2.416831182965428 0.9102586279129815 2.416831182965428 C 0.9407497718520097 2.416233317397996 0.9610772011446951 2.399493081509902 0.986187554976836 2.3959058881053106 C 0.993361941786019 2.3953080225378787 0.9981448663254744 2.392916560268151 0.9981448663254744 2.3857421734589677 C 0.9981448663254744 2.3737848621103295 0.9843939582745401 2.3701976687057376 0.9742302436281974 2.3701976687057376 C 0.9604793355772632 2.3701976687057376 0.9443369652566012 2.3791656522172167 0.929988191638235 2.38335071118924 C 0.9293903260708031 2.3415001214690054 0.930586057205667 2.304432456288226 0.9359668473125543 2.2637775977028554 C 0.9371625784474181 2.255407479758808 0.9353689817451223 2.2470373618147614 0.9425433685543054 2.2452437651124657 C 0.9539028143355119 2.2422544372753057 0.9718387813584697 2.241656571707874 0.9831982271396763 2.24046084057301 C 0.9867854205442679 2.239862975005578 0.9915683450837233 2.2374715127358504 0.9951555384883148 2.2374715127358504 C 0.9999384630277701 2.2356779160335547 1.0041235219997937 2.2291013947918037 1.0041235219997937 2.2243184702523484 C 1.0041235219997937 2.217741949010597 0.9993405974603382 2.2159483523083012 0.9921662106511552 2.2159483523083012 L 0.9413476374194416 2.2141547556060055 C 0.9443369652566012 2.189044401773865 0.9455326963914651 2.144802349783902 0.9509134864983524 2.116702668114602 C 0.9521092176332162 2.1113218780077143 0.954500679902944 2.107136819035691 0.954500679902944 2.1023538944962357 C 0.954500679902944 2.0981688355242123 0.9497177553634886 2.0939837765521885 0.9473262930937608 2.091592314282461 L 0.9987427318929063 2.0886029864453013 C 1.0053192531346575 2.0886029864453013 1.0101021776741128 2.0856136586081417 1.009504312106681 2.078439271798959 C 1.008308580971817 2.061101170343433 0.9891768828139955 2.057513976938841 0.9712409157910378 2.057513976938841 C 0.9604793355772632 2.057513976938841 0.9503156209309205 2.058709708073705 0.9437390996891692 2.059307573641137 C 0.9365647128799862 2.0599054392085687 0.9335753850428266 2.0634926326131606 0.9311839227730989 2.0694712882874797 M 1.1234108393970594 2.3175854987717286 C 1.1234108393970594 2.3098132463951133 1.1216172426947637 2.3020409940184985 1.119823645992468 2.294866607209315 C 1.1132471247507167 2.2625818665679915 1.1084642002112612 2.233884319331259 1.1024855445369421 2.201599578689935 C 1.0988983511323505 2.177684955992658 1.0941154265928952 2.1507810054582217 1.0899303676208716 2.1274642483283763 C 1.087538905351144 2.112517609142578 1.0863431742162801 2.0969731043893485 1.0827559808116887 2.082624330770982 C 1.079766652974529 2.068275557152616 1.0731901317327779 2.0652862293154564 1.0594392236818435 2.0652862293154564 C 1.0438947189286134 2.0652862293154564 1.0361224665519984 2.0796350029338226 1.0367203321194305 2.1017560289288038 C 1.0373181976868624 2.15018313989079 1.0355246009845664 2.1986102508527754 1.0337310042822707 2.2470373618147614 C 1.0331331387148388 2.273941312349198 1.031937407579975 2.305030321855658 1.0307416764451112 2.3313364068226625 C 1.0277523486079516 2.3648168785988504 1.0223715585010642 2.3911229635658553 1.0283502141753835 2.4138418551282683 C 1.0295459453102473 2.4192226452351555 1.0343288698497026 2.422211973072315 1.03970965995659 2.422211973072315 C 1.0450904500634772 2.422211973072315 1.0516669713052285 2.4186247796677236 1.0534605680075242 2.4108525272911088 C 1.0594392236818435 2.3857421734589677 1.0636242826538669 2.210567562201414 1.0636242826538669 2.2069803687968226 C 1.064222148221299 2.195023057448184 1.064820013788731 2.168716972481179 1.064222148221299 2.156161795565109 C 1.0672114760584586 2.1597489889697004 1.079766652974529 2.24046084057301 1.0809623841093927 2.2470373618147614 C 1.0821581152442565 2.2536138830565124 1.095909023295191 2.337315062496982 1.112051393615853 2.400688812644766 C 1.1132471247507167 2.405471737184221 1.118627914857604 2.409656796156245 1.1240087049644913 2.409656796156245 C 1.1305852262062426 2.409058930588813 1.134172419610834 2.4042760060493573 1.134770285178266 2.3976994848076063 C 1.1461297309594725 2.3976994848076063 1.1527062522012237 2.392916560268151 1.1527062522012237 2.383948576756672 C 1.1527062522012237 2.376176324380057 1.150314789931496 2.3690019375708737 1.150314789931496 2.361229685194259 C 1.1515105210663599 2.30562818742309 1.1533041177686556 2.20937183106655 1.1562934456058152 2.154368198862813 C 1.1574891767406792 2.1334429040026954 1.159282773442975 2.1023538944962357 1.158684907875543 2.0814285996361184 C 1.158684907875543 2.074254212826935 1.1515105210663599 2.067079826017752 1.143140403122313 2.067079826017752 C 1.1407489408525853 2.067079826017752 1.1383574785828576 2.067677691585184 1.1359660163131298 2.0694712882874797 C 1.1287916295039468 2.073058481692071 1.1287916295039468 2.116702668114602 1.1287916295039468 2.1268663827609444 C 1.128193763936515 2.15018313989079 1.1240087049644913 2.2601904042982635 1.1234108393970594 2.3175854987717286 M 1.2875281488491352 2.295464472776747 L 1.2851366865794076 2.295464472776747 C 1.28274522430968 2.282909295860677 1.2797558964725202 2.2703541189446064 1.2773644342027926 2.257798942028536 L 1.2600263327472667 2.172304165885771 C 1.2528519459380836 2.1370300974072873 1.2444818279940368 2.1023538944962357 1.2385031723197175 2.067079826017752 C 1.2367095756174218 2.0557203802365454 1.2367095756174218 2.0533289179668177 1.2241543987013512 2.0533289179668177 C 1.2127949529201447 2.0533289179668177 1.1960547170320508 2.0539267835342496 1.1960547170320508 2.068275557152616 C 1.1960547170320508 2.074254212826935 1.1984461793017787 2.0802328685012546 1.1990440448692106 2.0862115241755737 C 1.1990440448692106 2.0945816421196204 1.1978483137343467 2.1047453567659633 1.1978483137343467 2.1137133402774424 C 1.1978483137343467 2.1603468545371323 1.1924675236274593 2.2075782343642545 1.1912717924925955 2.2524181519216486 C 1.1900760613577317 2.287692220400132 1.185891002385708 2.366610475301146 1.1876845990880038 2.409058930588813 C 1.1876845990880038 2.4204183763700193 1.1852931368182762 2.4252013009094746 1.1954568514646189 2.431179956583794 C 1.1984461793017787 2.43297355328609 1.2038269694086658 2.4353650155558175 1.2056205661109616 2.4353650155558175 C 1.2157842807573043 2.4353650155558175 1.2163821463247364 2.4138418551282683 1.2163821463247364 2.407265333886517 C 1.2163821463247364 2.354653163952508 1.2175778774596002 2.3026388595859304 1.2205672052967598 2.250624555219353 C 1.2217629364316236 2.2296992603592356 1.2217629364316236 2.188446536206433 1.227143726538511 2.1657276446440195 C 1.2373074411848537 2.2063825032293902 1.242090365724309 2.2368736471684185 1.250460483668356 2.27154985007947 C 1.2606241983146986 2.3175854987717286 1.2725815096633373 2.366610475301146 1.2857345521468395 2.4114503928585407 C 1.2875281488491352 2.416233317397996 1.2929089389560227 2.4204183763700193 1.2982897290629098 2.4204183763700193 C 1.3072577125743887 2.4204183763700193 1.31383423381614 2.416831182965428 1.31383423381614 2.4084610650213807 C 1.31383423381614 2.3905250979984234 1.31383423381614 2.3737848621103295 1.31383423381614 2.3564467606548036 C 1.31383423381614 2.2870943548327003 1.3186171583555955 2.2129590244711417 1.321606486192755 2.1418130219467426 C 1.3228022173276188 2.1184962648168977 1.32937873856937 2.098766701091644 1.32937873856937 2.075449943961799 C 1.32937873856937 2.061101170343433 1.3204107550578912 2.056916111371409 1.3078555781418206 2.056916111371409 C 1.3006811913326377 2.056916111371409 1.2964961323606141 2.058111842506273 1.2947025356583184 2.068275557152616 C 1.2935068045234546 2.0802328685012546 1.2941046700908865 2.0933859109847566 1.2935068045234546 2.1047453567659633 C 1.291115342253727 2.169314838048611 1.289321745551431 2.235080050466123 1.2875281488491352 2.295464472776747 M 1.3876656686426905 2.082624330770982 C 1.3727190294568923 2.090994448715029 1.373914760591756 2.090994448715029 1.3721211638894604 2.106538953468259 C 1.3667403737825732 2.1645319135091556 1.360163852540822 2.223720604684916 1.3559787935687984 2.281713564725813 C 1.3529894657316388 2.3187812299065924 1.351793734596775 2.3570446262222355 1.351793734596775 2.3947101569704468 C 1.351793734596775 2.4030802749144935 1.3541851968665026 2.416831182965428 1.3655446426477094 2.416831182965428 C 1.3960357865867374 2.416233317397996 1.4163632158794228 2.399493081509902 1.4414735697115637 2.3959058881053106 C 1.4486479565207468 2.3953080225378787 1.4534308810602021 2.392916560268151 1.4534308810602021 2.3857421734589677 C 1.4534308810602021 2.3737848621103295 1.439679973009268 2.3701976687057376 1.4295162583629253 2.3701976687057376 C 1.415765350311991 2.3701976687057376 1.399622979991329 2.3791656522172167 1.3852742063729628 2.38335071118924 C 1.384676340805531 2.3415001214690054 1.3858720719403947 2.304432456288226 1.391252862047282 2.2637775977028554 C 1.3924485931821458 2.255407479758808 1.39065499647985 2.2470373618147614 1.3978293832890332 2.2452437651124657 C 1.4091888290702397 2.2422544372753057 1.4271247960931974 2.241656571707874 1.438484241874404 2.24046084057301 C 1.4420714352789956 2.239862975005578 1.446854359818451 2.2374715127358504 1.4504415532230426 2.2374715127358504 C 1.4552244777624979 2.2356779160335547 1.4594095367345215 2.2291013947918037 1.4594095367345215 2.2243184702523484 C 1.4594095367345215 2.217741949010597 1.454626612195066 2.2159483523083012 1.4474522253858828 2.2159483523083012 L 1.3966336521541693 2.2141547556060055 C 1.399622979991329 2.189044401773865 1.4008187111261927 2.144802349783902 1.4061995012330801 2.116702668114602 C 1.407395232367944 2.1113218780077143 1.4097866946376716 2.107136819035691 1.4097866946376716 2.1023538944962357 C 1.4097866946376716 2.0981688355242123 1.4050037700982163 2.0939837765521885 1.4026123078284887 2.091592314282461 L 1.454028746627634 2.0886029864453013 C 1.4606052678693853 2.0886029864453013 1.4653881924088406 2.0856136586081417 1.4647903268414086 2.078439271798959 C 1.4635945957065448 2.061101170343433 1.4444628975487233 2.057513976938841 1.4265269305257655 2.057513976938841 C 1.415765350311991 2.057513976938841 1.4056016356656482 2.058709708073705 1.399025114423897 2.059307573641137 C 1.3918507276147138 2.0599054392085687 1.3888613997775543 2.0634926326131606 1.3864699375078267 2.0694712882874797 M 1.5697288706203083 2.089798717580165 C 1.5709246017551721 2.105343222333395 1.5338569365743928 2.2051867720945264 1.5254868186303459 2.2302971259266675 C 1.5129316417142755 2.265571194405151 1.4943978091238859 2.3199769610414562 1.484831960044975 2.354653163952508 C 1.4800490355055196 2.367208340868578 1.4758639765334962 2.3695998031383056 1.4764618421009281 2.382752845621808 C 1.47705970766836 2.3881336357286953 1.4794511699380877 2.391720829133287 1.4824404977752472 2.3953080225378787 C 1.500376464798205 2.4144397206957002 1.517116700686299 2.416831182965428 1.5368462644115524 2.416831182965428 C 1.5428249200858717 2.416831182965428 1.5499993068950548 2.416831182965428 1.557173693704238 2.416831182965428 C 1.5685331394854445 2.416831182965428 1.5906541654804256 2.416831182965428 1.5888605687781299 2.400688812644766 C 1.588262703210698 2.389927232430991 1.5757075262946276 2.384546442324104 1.5673374083505807 2.384546442324104 C 1.5601630215413975 2.384546442324104 1.5541843658670782 2.388731501296127 1.5464121134904631 2.388731501296127 C 1.5446185167881674 2.3881336357286953 1.5428249200858717 2.3881336357286953 1.5416291889510079 2.3881336357286953 C 1.5344548021418247 2.3881336357286953 1.5284761464675056 2.389329366863559 1.5218996252257544 2.389329366863559 C 1.515920969551435 2.389329366863559 1.5105401794445479 2.3869379045938315 1.5111380450119798 2.3809592489195124 C 1.5135295072817074 2.3588382229245313 1.532063339872097 2.3032367251533623 1.5428249200858717 2.2709519845120383 C 1.5589672904065337 2.2219270079826203 1.5769032574294914 2.1734998970206347 1.5930456277501532 2.1250727860586487 C 1.5972306867221768 2.1137133402774424 1.6008178801267683 2.1035496256310995 1.6097858636382472 2.0939837765521885 C 1.6133730570428388 2.091592314282461 1.6157645193125665 2.0868093897430056 1.6151666537451346 2.082624330770982 C 1.6133730570428388 2.061699035910865 1.5906541654804256 2.058709708073705 1.571522467322604 2.058709708073705 C 1.5649459460808528 2.058709708073705 1.5589672904065337 2.059307573641137 1.5541843658670782 2.059307573641137 C 1.5464121134904631 2.059307573641137 1.5027679270679328 2.0599054392085687 1.5033657926353647 2.068873422720048 C 1.5045615237702286 2.078439271798959 1.5177145662537308 2.0939837765521885 1.5284761464675056 2.0939837765521885 C 1.5374441299789843 2.0939837765521885 1.5470099790578953 2.0886029864453013 1.557173693704238 2.0886029864453013 C 1.5613587526762613 2.0886029864453013 1.565543811648285 2.0886029864453013 1.5697288706203083 2.089798717580165 M 1.7383269606361111 2.3803613833520805 C 1.7383269606361111 2.281115699158381 1.747892809715022 2.172902031453203 1.7574586587939327 2.08501579304071 C 1.7580565243613646 2.077243540664095 1.7514800031196134 2.068275557152616 1.7431098851755664 2.068275557152616 C 1.731152573826928 2.068275557152616 1.7239781870177449 2.068275557152616 1.7239781870177449 2.082624330770982 C 1.7239781870177449 2.098766701091644 1.723380321450313 2.1143112058448743 1.7221845903154491 2.129257845030672 C 1.7174016657759936 2.2075782343642545 1.7102272789668107 2.2870943548327003 1.7102272789668107 2.3648168785988504 C 1.7102272789668107 2.375578458812625 1.7036507577250595 2.392916560268151 1.7048464888599233 2.39889521594247 C 1.7102272789668107 2.409058930588813 1.7174016657759936 2.415635451830564 1.7299568426920642 2.415635451830564 C 1.73175043939436 2.415635451830564 1.7341419016640875 2.415635451830564 1.7353376327989514 2.415037586263132 C 1.7514800031196134 2.410254661723677 1.8076793664582143 2.400688812644766 1.8076793664582143 2.3791656522172167 C 1.8076793664582143 2.3743827276777614 1.8040921730536228 2.3690019375708737 1.7999071140815992 2.3695998031383056 C 1.786156206030665 2.3731869965428976 1.7592522554962284 2.3803613833520805 1.7383269606361111 2.3803613833520805 M 1.8683703116427661 2.082624330770982 C 1.853423672456968 2.090994448715029 1.8546194035918317 2.090994448715029 1.852825806889536 2.106538953468259 C 1.8474450167826488 2.1645319135091556 1.8408684955408976 2.223720604684916 1.836683436568874 2.281713564725813 C 1.8336941087317145 2.3187812299065924 1.8324983775968506 2.3570446262222355 1.8324983775968506 2.3947101569704468 C 1.8324983775968506 2.4030802749144935 1.8348898398665783 2.416831182965428 1.846249285647785 2.416831182965428 C 1.876740429586813 2.416233317397996 1.8970678588794985 2.399493081509902 1.9221782127116394 2.3959058881053106 C 1.9293525995208225 2.3953080225378787 1.9341355240602778 2.392916560268151 1.9341355240602778 2.3857421734589677 C 1.9341355240602778 2.3737848621103295 1.9203846160093436 2.3701976687057376 1.910220901363001 2.3701976687057376 C 1.8964699933120666 2.3701976687057376 1.8803276229914045 2.3791656522172167 1.8659788493730385 2.38335071118924 C 1.8653809838056066 2.3415001214690054 1.8665767149404704 2.304432456288226 1.8719575050473576 2.2637775977028554 C 1.8731532361822214 2.255407479758808 1.8713596394799257 2.2470373618147614 1.8785340262891088 2.2452437651124657 C 1.8898934720703153 2.2422544372753057 1.907829439093273 2.241656571707874 1.9191888848744796 2.24046084057301 C 1.9227760782790713 2.239862975005578 1.9275590028185265 2.2374715127358504 1.9311461962231182 2.2374715127358504 C 1.9359291207625735 2.2356779160335547 1.940114179734597 2.2291013947918037 1.940114179734597 2.2243184702523484 C 1.940114179734597 2.217741949010597 1.9353312551951416 2.2159483523083012 1.9281568683859585 2.2159483523083012 L 1.877338295154245 2.2141547556060055 C 1.8803276229914045 2.189044401773865 1.8815233541262684 2.144802349783902 1.8869041442331558 2.116702668114602 C 1.8880998753680196 2.1113218780077143 1.8904913376377472 2.107136819035691 1.8904913376377472 2.1023538944962357 C 1.8904913376377472 2.0981688355242123 1.885708413098292 2.0939837765521885 1.8833169508285643 2.091592314282461 L 1.9347333896277097 2.0886029864453013 C 1.941309910869461 2.0886029864453013 1.9460928354089162 2.0856136586081417 1.9454949698414843 2.078439271798959 C 1.9442992387066205 2.061101170343433 1.925167540548799 2.057513976938841 1.9072315735258412 2.057513976938841 C 1.8964699933120666 2.057513976938841 1.8863062786657239 2.058709708073705 1.8797297574239726 2.059307573641137 C 1.8725553706147895 2.0599054392085687 1.86956604277763 2.0634926326131606 1.8671745805079023 2.0694712882874797 M 1.9721131242868017 2.377969921082353 C 1.9691237964496422 2.377372055514921 1.9613515440730271 2.3869379045938315 1.9613515440730271 2.389927232430991 C 1.962547275207891 2.406069602751653 1.9768960488262572 2.4180269141002917 1.9930384191469193 2.4180269141002917 C 2.034889008867154 2.4132439895608364 2.048639916918088 2.343293718171301 2.0456505890809287 2.3086175152602495 C 2.040269798974041 2.251222420786785 1.9966256125515107 2.2159483523083012 1.9930384191469193 2.1824678805321134 C 1.9900490913097595 2.1507810054582217 2.018746638546492 2.1023538944962357 2.0528249758901116 2.1017560289288038 C 2.0540207070249754 2.1023538944962357 2.0552164381598392 2.1029517600636676 2.056412169294703 2.1029517600636676 C 2.0647822872387502 2.1029517600636676 2.065380152806182 2.0868093897430056 2.0641844216713183 2.082624330770982 C 2.0611950938341588 2.0724606161246393 2.051031379187816 2.0712648849897755 2.042063395676337 2.0712648849897755 C 1.9900490913097595 2.075449943961799 1.9607536785055952 2.1483895431884936 1.964340871910187 2.186055073936705 C 1.9679280653147784 2.2314928570615313 2.011572251737309 2.2637775977028554 2.0157573107093323 2.312204708664841 C 2.0193445041139237 2.3480766427107564 2.0061914616304217 2.3851443078915358 1.9870597634726 2.3869379045938315 C 1.9810811077982806 2.3875357701612634 1.978091779961121 2.38335071118924 1.9721131242868017 2.377969921082353 M 2.155030503339764 2.078439271798959 C 2.155030503339764 2.082624330770982 2.163400621283811 2.084417927473278 2.1639984868512427 2.1023538944962357 C 2.1651942179861066 2.1196919959517615 2.1592155623117875 2.1740977625880666 2.1580198311769236 2.1920337296110244 C 2.155628368907196 2.24046084057301 2.1538347722049003 2.288887951534996 2.1520411755026045 2.337912928064414 C 2.1508454443677407 2.361229685194259 2.149649713232877 2.3851443078915358 2.150247578800309 2.409058930588813 C 2.1508454443677407 2.4252013009094746 2.1580198311769236 2.4287884943140665 2.172966470362722 2.4287884943140665 C 2.1801408571719048 2.4287884943140665 2.1813365883067686 2.415635451830564 2.1807387227393367 2.398297350375038 C 2.1801408571719048 2.3707955342731695 2.1825323194416324 2.334325734659822 2.1831301850090643 2.3259556167157753 C 2.183728050576496 2.3098132463951133 2.1855216472787924 2.298453800613907 2.1855216472787924 2.2769306401863574 C 2.195087496357703 2.2972580694790428 2.2249807747292993 2.3719912654080337 2.249493262994008 2.375578458812625 C 2.250688994128872 2.375578458812625 2.2518847252637357 2.375578458812625 2.2530804563985996 2.375578458812625 C 2.258461246505487 2.375578458812625 2.2644399021798063 2.3731869965428976 2.2620484399100786 2.36780620643601 C 2.2578633809380553 2.360033954059395 2.2369380860779375 2.322966288878616 2.221393581324708 2.2870943548327003 C 2.2201978501898436 2.2841050269955407 2.2082405388412054 2.2518202863542167 2.205251211004046 2.248830958517057 C 2.2249807747292993 2.226112066954644 2.2518847252637357 2.1914358640435925 2.250688994128872 2.1442044842164703 C 2.249493262994008 2.090994448715029 2.218404253487548 2.078439271798959 2.2058490765714778 2.068275557152616 C 2.201066152032022 2.0599054392085687 2.194489630790271 2.0545246491016815 2.1843259161439286 2.0545246491016815 C 2.1699771425255623 2.0551225146691134 2.1639984868512427 2.068275557152616 2.155030503339764 2.078439271798959 M 2.18791310954852 2.2189376801454608 C 2.1903045718182477 2.193229460745888 2.195685361925135 2.129855710598104 2.1974789586274306 2.1041474911985314 C 2.2082405388412054 2.105941087900827 2.221393581324708 2.122083458221489 2.2207957157572755 2.145400215351334 C 2.2195999846224117 2.17828282156009 2.2022618831668863 2.2087739654991183 2.18791310954852 2.2189376801454608 M 2.3514453982012142 1.9750085286332357 C 2.3394880868525756 1.9779978564703953 2.337096624582848 1.9809871843075548 2.335900893447984 1.9917487645213297 C 2.335900893447984 2.011478328246583 2.3478582047966223 2.0264249674323813 2.35323899490351 2.034197219808996 C 2.3556304571732376 2.036588682078724 2.359217650577829 2.0371865476461557 2.3628048439824205 2.0371865476461557 C 2.3640005751172843 2.0371865476461557 2.365196306252148 2.0371865476461557 2.366392037387012 2.0371865476461557 C 2.374762155331059 2.035990816511292 2.376555752033355 2.028816429702109 2.3723706930613315 2.0234356395952218 C 2.3717728274938996 2.0222399084603575 2.369381365224172 2.0216420428929256 2.3681856340893077 2.019250580623198 C 2.360413381712693 2.006097538139696 2.359217650577829 1.9947380923584892 2.3556304571732376 1.9839765121447146 C 2.354434726038374 1.9809871843075548 2.35323899490351 1.9779978564703953 2.3514453982012142 1.9750085286332357 M 2.3161713297227307 2.082624330770982 C 2.3012246905369325 2.090994448715029 2.3024204216717963 2.090994448715029 2.3006268249695006 2.106538953468259 C 2.2958439004300453 2.1645319135091556 2.289267379188294 2.223720604684916 2.2844844546488385 2.281713564725813 C 2.281495126811679 2.3187812299065924 2.280299395676815 2.3570446262222355 2.280299395676815 2.3947101569704468 C 2.280299395676815 2.4030802749144935 2.2832887235139747 2.416831182965428 2.294648169295181 2.416831182965428 C 2.3251393132342093 2.416233317397996 2.3448688769594628 2.399493081509902 2.370577096359036 2.3959058881053106 C 2.376555752033355 2.3953080225378787 2.381936542140242 2.392916560268151 2.381936542140242 2.3857421734589677 C 2.381936542140242 2.3737848621103295 2.3681856340893077 2.3701976687057376 2.3580219194429652 2.3701976687057376 C 2.344271011392031 2.3701976687057376 2.3287265066388008 2.3791656522172167 2.314377733020435 2.38335071118924 C 2.313779867453003 2.3415001214690054 2.314975598587867 2.304432456288226 2.319758523127322 2.2637775977028554 C 2.320954254262186 2.255407479758808 2.31916065755989 2.2470373618147614 2.326335044369073 2.2452437651124657 C 2.33769449015028 2.2422544372753057 2.3556304571732376 2.241656571707874 2.366392037387012 2.24046084057301 C 2.3711749619264677 2.239862975005578 2.375360020898491 2.2374715127358504 2.3795450798705144 2.2374715127358504 C 2.383730138842538 2.2356779160335547 2.3873173322471297 2.2291013947918037 2.3873173322471297 2.2243184702523484 C 2.3873173322471297 2.217741949010597 2.383132273275106 2.2159483523083012 2.375957886465923 2.2159483523083012 L 2.325737178801641 2.2141547556060055 C 2.328128641071369 2.189044401773865 2.3299222377736646 2.144802349783902 2.335303027880552 2.116702668114602 C 2.335900893447984 2.1113218780077143 2.3388902212851437 2.107136819035691 2.3382923557177118 2.1023538944962357 C 2.3382923557177118 2.0981688355242123 2.3335094311782565 2.0939837765521885 2.3305201033410965 2.091592314282461 L 2.382534407707674 2.0886029864453013 C 2.3885130633819935 2.0886029864453013 2.3938938534888807 2.0856136586081417 2.393295987921449 2.078439271798959 C 2.392698122354017 2.061101170343433 2.3735664241961953 2.057513976938841 2.3550325916058057 2.057513976938841 C 2.344271011392031 2.057513976938841 2.3341072967456884 2.058709708073705 2.327530775503937 2.059307573641137 C 2.320356388694754 2.0599054392085687 2.3173670608575945 2.0634926326131606 2.3155734641552987 2.0694712882874797 M 2.4521737773250827 2.2255142013872122 C 2.456358836297106 2.202197444257367 2.483262786831543 2.1089304157379867 2.504785947259092 2.099364566659076 C 2.5071774095288197 2.096375238821916 2.5083731406636836 2.0927880454173247 2.5083731406636836 2.0886029864453013 C 2.5083731406636836 2.078439271798959 2.4976115604499087 2.068275557152616 2.489241442505862 2.068275557152616 C 2.483262786831543 2.068275557152616 2.479675593426951 2.0724606161246393 2.4766862655897914 2.077841406231527 C 2.434237810302125 2.139421559677015 2.41092105317228 2.2302971259266675 2.41092105317228 2.3068239185579538 C 2.41092105317228 2.334325734659822 2.4151061121443034 2.4120482584259726 2.4533695084599465 2.4120482584259726 C 2.465924685376017 2.4120482584259726 2.474294803320064 2.4030802749144935 2.482067055696679 2.392318694700719 C 2.505981678393956 2.359436088491963 2.511362468500843 2.2858986236978365 2.5155475274728665 2.251222420786785 C 2.5161453930402984 2.2464394962473295 2.5478322681141905 2.2380693783032823 2.5484301336816224 2.223720604684916 C 2.5490279992490543 2.218339814578029 2.5478322681141905 2.216546217875733 2.5466365369793267 2.211165427768846 C 2.5400600157375757 2.2135568900385736 2.533483494495824 2.2141547556060055 2.528102704388937 2.2159483523083012 C 2.50418808169166 2.2213291424151884 2.483860652398975 2.223720604684916 2.4521737773250827 2.2255142013872122 M 2.450380180622787 2.2386672438707143 C 2.456358836297106 2.2524181519216486 2.4748926688874957 2.2530160174890805 2.483262786831543 2.2530160174890805 C 2.482067055696679 2.2870943548327003 2.471903341050336 2.354055298385076 2.4545652395948103 2.3815571144869443 C 2.450380180622787 2.3713933998406014 2.444401524948468 2.33372786909239 2.444401524948468 2.312802574232273 C 2.444401524948468 2.2930730105070194 2.4461951216507636 2.257201076461104 2.450380180622787 2.2386672438707143 M 2.5905711903157216 2.3803613833520805 C 2.5905711903157216 2.281115699158381 2.6001370393946326 2.172902031453203 2.609702888473543 2.08501579304071 C 2.610300754040975 2.077243540664095 2.603724232799224 2.068275557152616 2.5953541148551773 2.068275557152616 C 2.5833968035065387 2.068275557152616 2.5762224166973557 2.068275557152616 2.5762224166973557 2.082624330770982 C 2.5762224166973557 2.098766701091644 2.575624551129924 2.1143112058448743 2.5744288199950596 2.129257845030672 C 2.5696458954556043 2.2075782343642545 2.5624715086464214 2.2870943548327003 2.5624715086464214 2.3648168785988504 C 2.5624715086464214 2.375578458812625 2.55589498740467 2.392916560268151 2.557090718539534 2.39889521594247 C 2.5624715086464214 2.409058930588813 2.5696458954556043 2.415635451830564 2.582201072371675 2.415635451830564 C 2.5839946690739706 2.415635451830564 2.586386131343698 2.415635451830564 2.587581862478562 2.415037586263132 C 2.603724232799224 2.410254661723677 2.659923596137825 2.400688812644766 2.659923596137825 2.3791656522172167 C 2.659923596137825 2.3743827276777614 2.6563364027332335 2.3690019375708737 2.65215134376121 2.3695998031383056 C 2.6384004357102757 2.3731869965428976 2.611496485175839 2.3803613833520805 2.5905711903157216 2.3803613833520805 M 2.7206145413223766 2.082624330770982 C 2.705667902136579 2.090994448715029 2.7068636332714426 2.090994448715029 2.705070036569147 2.106538953468259 C 2.6996892464622593 2.1645319135091556 2.6931127252205083 2.223720604684916 2.688927666248485 2.281713564725813 C 2.6859383384113253 2.3187812299065924 2.6847426072764615 2.3570446262222355 2.6847426072764615 2.3947101569704468 C 2.6847426072764615 2.4030802749144935 2.687134069546189 2.416831182965428 2.6984935153273955 2.416831182965428 C 2.7289846592664238 2.416233317397996 2.749312088559109 2.399493081509902 2.77442244239125 2.3959058881053106 C 2.781596829200433 2.3953080225378787 2.7863797537398884 2.392916560268151 2.7863797537398884 2.3857421734589677 C 2.7863797537398884 2.3737848621103295 2.772628845688954 2.3701976687057376 2.7624651310426116 2.3701976687057376 C 2.7487142229916772 2.3701976687057376 2.732571852671015 2.3791656522172167 2.718223079052649 2.38335071118924 C 2.717625213485217 2.3415001214690054 2.718820944620081 2.304432456288226 2.7242017347269685 2.2637775977028554 C 2.7253974658618323 2.255407479758808 2.7236038691595366 2.2470373618147614 2.7307782559687195 2.2452437651124657 C 2.742137701749926 2.2422544372753057 2.760073668772884 2.241656571707874 2.7714331145540902 2.24046084057301 C 2.7750203079586817 2.239862975005578 2.7798032324981374 2.2374715127358504 2.783390425902729 2.2374715127358504 C 2.788173350442184 2.2356779160335547 2.7923584094142075 2.2291013947918037 2.7923584094142075 2.2243184702523484 C 2.7923584094142075 2.217741949010597 2.7875754848747523 2.2159483523083012 2.7804010980655693 2.2159483523083012 L 2.7295825248338557 2.2141547556060055 C 2.732571852671015 2.189044401773865 2.733767583805879 2.144802349783902 2.739148373912766 2.116702668114602 C 2.7403441050476305 2.1113218780077143 2.742735567317358 2.107136819035691 2.742735567317358 2.1023538944962357 C 2.742735567317358 2.0981688355242123 2.7379526427779024 2.0939837765521885 2.7355611805081748 2.091592314282461 L 2.7869776193073204 2.0886029864453013 C 2.7935541405490714 2.0886029864453013 2.798337065088527 2.0856136586081417 2.797739199521095 2.078439271798959 C 2.7965434683862314 2.061101170343433 2.77741177022841 2.057513976938841 2.759475803205452 2.057513976938841 C 2.7487142229916772 2.057513976938841 2.7385505083453343 2.058709708073705 2.7319739871035833 2.059307573641137 C 2.7247996002944004 2.0599054392085687 2.721810272457241 2.0634926326131606 2.7194188101875127 2.0694712882874797 M 2.8243573539664126 2.377969921082353 C 2.821368026129253 2.377372055514921 2.8135957737526383 2.3869379045938315 2.8135957737526383 2.389927232430991 C 2.814791504887502 2.406069602751653 2.829140278505868 2.4180269141002917 2.84528264882653 2.4180269141002917 C 2.887133238546765 2.4132439895608364 2.900884146597699 2.343293718171301 2.8978948187605393 2.3086175152602495 C 2.892514028653652 2.251222420786785 2.848869842231122 2.2159483523083012 2.84528264882653 2.1824678805321134 C 2.8422933209893704 2.1507810054582217 2.870990868226103 2.1023538944962357 2.9050692055697227 2.1017560289288038 C 2.9062649367045865 2.1023538944962357 2.9074606678394503 2.1029517600636676 2.908656398974314 2.1029517600636676 C 2.917026516918361 2.1029517600636676 2.917624382485793 2.0868093897430056 2.916428651350929 2.082624330770982 C 2.9134393235137694 2.0724606161246393 2.903275608867427 2.0712648849897755 2.894307625355948 2.0712648849897755 C 2.8422933209893704 2.075449943961799 2.8129979081852063 2.1483895431884936 2.816585101589798 2.186055073936705 C 2.8201722949943893 2.2314928570615313 2.8638164814169196 2.2637775977028554 2.8680015403889434 2.312204708664841 C 2.871588733793535 2.3480766427107564 2.8584356913100324 2.3851443078915358 2.839303993152211 2.3869379045938315 C 2.8333253374778917 2.3875357701612634 2.830336009640732 2.38335071118924 2.8243573539664126 2.377969921082353 M 3.053310381711633 2.067079826017752 C 3.053310381711633 2.062296901478297 3.0527125161442012 2.0557203802365454 3.0497231883070417 2.0539267835342496 C 3.041950935930427 2.0497417245622263 3.040755204795563 2.0479481278599305 3.0347765491212435 2.0479481278599305 C 3.025210700042333 2.0485459934273624 3.0222213722051734 2.057513976938841 3.0216235066377415 2.06648196045032 C 3.018634178800582 2.1328450384352635 3.0126555231262624 2.1896422673412967 3.008470464154239 2.256603210893672 C 3.0054811363170795 2.312204708664841 2.9995024806427604 2.3582403573570994 3.001893942912488 2.4144397206957002 C 3.001893942912488 2.4269948976117703 3.014449119828558 2.4305820910163622 3.024612834474901 2.4305820910163622 C 3.032385086851516 2.4305820910163622 3.032385086851516 2.4275927631792027 3.032385086851516 2.41742904853286 C 3.032385086851516 2.4144397206957002 3.032385086851516 2.4120482584259726 3.032385086851516 2.4084610650213807 C 3.0395594736606992 2.4036781404819254 3.0509189194419055 2.4018845437796297 3.0676591553299994 2.3863400390263996 C 3.117879862994281 2.338510793631846 3.136413695584671 2.2428523028427376 3.1334243677475113 2.1758913592903624 C 3.1334243677475113 2.168716972481179 3.1322286366126475 2.1597489889697004 3.1322286366126475 2.1525746021605174 C 3.128043577640624 2.123279189356353 3.11130334175253 2.0862115241755737 3.0832036600832295 2.073058481692071 C 3.0760292732740466 2.0706670194223435 3.0604847685208165 2.067079826017752 3.053310381711633 2.067079826017752 M 3.0335808179863797 2.3725891309754656 C 3.0359722802561073 2.3265534822832072 3.0395594736606992 2.266169059972583 3.042548801497859 2.2201334112803246 C 3.0455381293350183 2.1824678805321134 3.048527457172178 2.1364322318398554 3.0527125161442012 2.099364566659076 C 3.0545061128464974 2.098766701091644 3.057495440683657 2.0981688355242123 3.0598869029533846 2.0981688355242123 C 3.0616804996556803 2.0981688355242123 3.063474096357976 2.0981688355242123 3.06466982749284 2.098766701091644 C 3.0915737780272767 2.1041474911985314 3.0999438959713235 2.1436066186490383 3.1011396271061873 2.162140451239428 C 3.104128954943347 2.2243184702523484 3.0891823157575486 2.3074217841253857 3.0521146505767693 2.3576424917896674 C 3.047331726037314 2.3648168785988504 3.040157339228131 2.367208340868578 3.0335808179863797 2.3725891309754656 M 3.210845331391026 2.392318694700719 C 3.1976922889075237 2.392318694700719 3.1923114988006365 2.3247598855809115 3.194702961070364 2.265571194405151 C 3.19649655777266 2.2129590244711417 3.1994858856098194 2.123877054923785 3.2042688101492747 2.1041474911985314 C 3.2048666757167066 2.099962432226508 3.207258137986434 2.096375238821916 3.207258137986434 2.0927880454173247 C 3.207258137986434 2.083222196338414 3.195300826637796 2.0760478095292307 3.186930708693749 2.076645675096663 C 3.1755712629125425 2.077243540664095 3.1660054138336315 2.082624330770982 3.1666032794010635 2.095777373254484 C 3.1666032794010635 2.1023538944962357 3.1660054138336315 2.107734684603123 3.1660054138336315 2.1143112058448743 C 3.16241822042904 2.1585532578348365 3.1612224892941763 2.2063825032293902 3.1600267581593124 2.2524181519216486 C 3.157635295889585 2.329542810120367 3.163613951563904 2.421614107504883 3.2138346592281857 2.421614107504883 C 3.2544895178135564 2.421614107504883 3.2700340225667865 2.312802574232273 3.273621215971378 2.2853007581304046 C 3.2819913339154247 2.223720604684916 3.288567855157176 2.122083458221489 3.2879699895897443 2.105343222333395 C 3.2873721240223124 2.0933859109847566 3.2933507796966315 2.0563182458039773 3.2688382914319227 2.0563182458039773 C 3.265848963594763 2.0563182458039773 3.2622617701901713 2.056916111371409 3.25867457678558 2.058111842506273 C 3.25867457678558 2.1262685171935125 3.252098055543829 2.2129590244711417 3.241336475330054 2.2805178335909493 C 3.2317706262511434 2.3361193313621182 3.2204111804699367 2.392318694700719 3.210845331391026 2.392318694700719 M 3.4099007018664516 2.0628947670457287 C 3.4045199117595644 2.0628947670457287 3.394954062680654 2.0646883637480244 3.394356197113222 2.0706670194223435 C 3.3931604659783576 2.074852078394367 3.3985412560852453 2.0814285996361184 3.3985412560852453 2.0856136586081417 C 3.399736987220109 2.1107240124402824 3.394356197113222 2.172902031453203 3.389573272573766 2.2243184702523484 C 3.384192482466879 2.2805178335909493 3.3794095579274237 2.35226170168278 3.3794095579274237 2.4084610650213807 C 3.3794095579274237 2.422809838639747 3.3859860791691747 2.432375687718658 3.401530583922405 2.43297355328609 C 3.412292164136179 2.43297355328609 3.412292164136179 2.424005569774611 3.412292164136179 2.415635451830564 C 3.4128900297036115 2.407265333886517 3.4099007018664516 2.399493081509902 3.4099007018664516 2.3905250979984234 C 3.4110964330013154 2.3642190130314185 3.4128900297036115 2.3134004397997048 3.415879357540771 2.2870943548327003 C 3.4666979307724843 2.266169059972583 3.4977869402789445 2.1902401329087287 3.4983848058463765 2.1489874087559255 C 3.4995805369812403 2.089798717580165 3.455338484991278 2.0640904981805925 3.4099007018664516 2.0628947670457287 M 3.432619593428865 2.0921901798498928 C 3.45593635055871 2.0933859109847566 3.4696872586096443 2.116702668114602 3.4690893930422124 2.1489874087559255 C 3.4690893930422124 2.1752934937229305 3.4505555604518228 2.22790566365694 3.417672954243067 2.2530160174890805 C 3.42185801321509 2.201599578689935 3.429032400024273 2.1424108875141745 3.432619593428865 2.0921901798498928 M 3.6349967960780245 2.2619840010005596 C 3.6415733173197755 2.1818700149646815 3.63977972061748 2.1280621138958082 3.623039484729386 2.090396583147597 C 3.620648022459658 2.083820061905846 3.6170608290550668 2.0790371373663907 3.614669366785339 2.077841406231527 C 3.60570138327386 2.0718627505572074 3.598526996464677 2.0706670194223435 3.59015687852063 2.068873422720048 C 3.5871675506834704 2.068873422720048 3.5853739539811746 2.0694712882874797 3.582982491711447 2.0694712882874797 C 3.5811888950091513 2.0694712882874797 3.5793952983068555 2.068873422720048 3.576405970469696 2.067079826017752 C 3.5740145081999684 2.0652862293154564 3.5716230459302403 2.0640904981805925 3.5692315836605126 2.0640904981805925 C 3.5584700034467383 2.0640904981805925 3.550697751070123 2.084417927473278 3.5483062888003953 2.0945816421196204 C 3.537544708586621 2.138823694109583 3.5297724562100057 2.1806742838298177 3.5255873972379823 2.2255142013872122 C 3.521402338265959 2.273343446781766 3.517815144861367 2.3157919020694324 3.5237938005356866 2.366012609733714 C 3.5249895316705504 2.376176324380057 3.5255873972379823 2.3869379045938315 3.5303703217774376 2.3965037536727425 C 3.536946843019189 2.409656796156245 3.550099885502691 2.421614107504883 3.565644390255921 2.421614107504883 C 3.616462963487635 2.421614107504883 3.631409602673433 2.2972580694790428 3.6349967960780245 2.2619840010005596 M 3.5644486591210574 2.391720829133287 C 3.538142574154053 2.3582403573570994 3.566242255823353 2.114909071412306 3.5871675506834704 2.0868093897430056 C 3.6128757700830434 2.1101261468728505 3.6080928455435877 2.2249163358197803 3.604505652138996 2.257798942028536 C 3.599124862032109 2.298453800613907 3.588363281818334 2.35226170168278 3.5692315836605126 2.389329366863559 C 3.568035852525649 2.3911229635658553 3.566840121390785 2.393514425835583 3.566242255823353 2.393514425835583 C 3.565644390255921 2.393514425835583 3.5650465246884893 2.392916560268151 3.5644486591210574 2.391720829133287 M 3.709430767296752 2.171706300318339 C 3.710028632864184 2.1483895431884936 3.7160072885385036 2.1119197435751462 3.7172030196733674 2.0880051208778694 C 3.7178008852407993 2.0760478095292307 3.7076371705944564 2.0628947670457287 3.6962777248132497 2.0628947670457287 C 3.6956798592458178 2.0628947670457287 3.695081993678386 2.0628947670457287 3.695081993678386 2.0628947670457287 C 3.6891033380040668 2.0628947670457287 3.6849182790320434 2.06648196045032 3.6843204134646115 2.0724606161246393 C 3.6825268167623157 2.0933859109847566 3.68073322006002 2.112517609142578 3.679537488925156 2.1322471728678316 C 3.677146026655428 2.1597489889697004 3.6741566988182686 2.193229460745888 3.671765236548541 2.2201334112803246 C 3.6687759087113814 2.2685605222423106 3.663992984171926 2.3319342723900944 3.663992984171926 2.3797635177846486 C 3.663992984171926 2.3911229635658553 3.665786580874222 2.423407704207179 3.681331085627452 2.423407704207179 C 3.681928951194884 2.423407704207179 3.6831246823297477 2.422809838639747 3.6837225478971796 2.422211973072315 C 3.694484128110954 2.422211973072315 3.695081993678386 2.415635451830564 3.695081993678386 2.409656796156245 C 3.693886262543522 2.36780620643601 3.698071321515546 2.3181833643391605 3.7016585149201373 2.2763327746189255 C 3.702256380487569 2.272147715646902 3.702854246055001 2.267364791107447 3.702854246055001 2.2637775977028554 C 3.7160072885385036 2.2847028925629727 3.7542706848541467 2.35226170168278 3.7787831731188555 2.35226170168278 C 3.7835660976583108 2.35226170168278 3.791338350034926 2.350468104980484 3.791338350034926 2.345087314873597 C 3.791338350034926 2.339108659199278 3.7172030196733674 2.239265109438146 3.7172030196733674 2.217741949010597 C 3.727964599887142 2.1992081164202073 3.7620429372307616 2.154368198862813 3.787153291062902 2.129257845030672 C 3.7961212745743813 2.1196919959517615 3.7943276778720856 2.0975709699567804 3.7787831731188555 2.0975709699567804 C 3.7626408027981935 2.0975709699567804 3.7243774064825503 2.162140451239428 3.709430767296752 2.171706300318339 M 3.841874630296079 2.082624330770982 C 3.8269279911102814 2.090994448715029 3.828123722245145 2.090994448715029 3.8263301255428495 2.106538953468259 C 3.820949335435962 2.1645319135091556 3.814372814194211 2.223720604684916 3.8101877552221874 2.281713564725813 C 3.807198427385028 2.3187812299065924 3.806002696250164 2.3570446262222355 3.806002696250164 2.3947101569704468 C 3.806002696250164 2.4030802749144935 3.8083941585198917 2.416831182965428 3.819753604301098 2.416831182965428 C 3.8502447482401263 2.416233317397996 3.8705721775328117 2.399493081509902 3.8956825313649524 2.3959058881053106 C 3.9028569181741357 2.3953080225378787 3.907639842713591 2.392916560268151 3.907639842713591 2.3857421734589677 C 3.907639842713591 2.3737848621103295 3.8938889346626566 2.3701976687057376 3.883725220016314 2.3701976687057376 C 3.8699743119653798 2.3701976687057376 3.8538319416447178 2.3791656522172167 3.8394831680263515 2.38335071118924 C 3.8388853024589196 2.3415001214690054 3.8400810335937834 2.304432456288226 3.845461823700671 2.2637775977028554 C 3.846657554835535 2.255407479758808 3.844863958133239 2.2470373618147614 3.852038344942422 2.2452437651124657 C 3.8633977907236288 2.2422544372753057 3.8813337577465865 2.241656571707874 3.892693203527793 2.24046084057301 C 3.8962803969323843 2.239862975005578 3.90106332147184 2.2374715127358504 3.9046505148764314 2.2374715127358504 C 3.9094334394158867 2.2356779160335547 3.91361849838791 2.2291013947918037 3.91361849838791 2.2243184702523484 C 3.91361849838791 2.217741949010597 3.908835573848455 2.2159483523083012 3.901661187039272 2.2159483523083012 L 3.850842613807558 2.2141547556060055 C 3.8538319416447178 2.189044401773865 3.8550276727795816 2.144802349783902 3.8604084628864688 2.116702668114602 C 3.861604194021333 2.1113218780077143 3.8639956562910607 2.107136819035691 3.8639956562910607 2.1023538944962357 C 3.8639956562910607 2.0981688355242123 3.859212731751605 2.0939837765521885 3.8568212694818773 2.091592314282461 L 3.908237708281023 2.0886029864453013 C 3.914814229522774 2.0886029864453013 3.9195971540622296 2.0856136586081417 3.9189992884947977 2.078439271798959 C 3.917803557359934 2.061101170343433 3.8986718592021123 2.057513976938841 3.8807358921791546 2.057513976938841 C 3.8699743119653798 2.057513976938841 3.859810597319037 2.058709708073705 3.853234076077286 2.059307573641137 C 3.846059689268103 2.0599054392085687 3.8430703614309434 2.0634926326131606 3.8406788991612153 2.0694712882874797 M 3.940236652833228 2.078439271798959 C 3.940236652833228 2.082624330770982 3.9486067707772747 2.084417927473278 3.9492046363447066 2.1023538944962357 C 3.9504003674795705 2.1196919959517615 3.9444217118052514 2.1740977625880666 3.9432259806703875 2.1920337296110244 C 3.94083451840066 2.24046084057301 3.939040921698364 2.288887951534996 3.9372473249960684 2.337912928064414 C 3.9360515938612046 2.361229685194259 3.934855862726341 2.3851443078915358 3.9354537282937727 2.409058930588813 C 3.9360515938612046 2.4252013009094746 3.9432259806703875 2.4287884943140665 3.9581726198561857 2.4287884943140665 C 3.9653470066653687 2.4287884943140665 3.9665427378002325 2.415635451830564 3.9659448722328006 2.398297350375038 C 3.9653470066653687 2.3707955342731695 3.9677384689350963 2.334325734659822 3.968336334502528 2.3259556167157753 C 3.9689342000699606 2.3098132463951133 3.9707277967722563 2.298453800613907 3.9707277967722563 2.2769306401863574 C 3.980293645851167 2.2972580694790428 4.010186924222763 2.3719912654080337 4.034699412487472 2.375578458812625 C 4.035895143622336 2.375578458812625 4.0370908747572 2.375578458812625 4.038286605892064 2.375578458812625 C 4.043667395998951 2.375578458812625 4.04964605167327 2.3731869965428976 4.0472545894035425 2.36780620643601 C 4.043069530431519 2.360033954059395 4.022144235571401 2.322966288878616 4.006599730818172 2.2870943548327003 C 4.005403999683308 2.2841050269955407 3.9934466883346693 2.2518202863542167 3.9904573604975098 2.248830958517057 C 4.010186924222763 2.226112066954644 4.0370908747572 2.1914358640435925 4.035895143622336 2.1442044842164703 C 4.034699412487472 2.090994448715029 4.003610402981012 2.078439271798959 3.9910552260649417 2.068275557152616 C 3.986272301525486 2.0599054392085687 3.979695780283735 2.0545246491016815 3.9695320656373925 2.0545246491016815 C 3.955183292019026 2.0551225146691134 3.9492046363447066 2.068275557152616 3.940236652833228 2.078439271798959 M 3.973119259041984 2.2189376801454608 C 3.9755107213117116 2.193229460745888 3.9808915114185988 2.129855710598104 3.9826851081208945 2.1041474911985314 C 3.9934466883346693 2.105941087900827 4.006599730818172 2.122083458221489 4.00600186525074 2.145400215351334 C 4.004806134115876 2.17828282156009 3.9874680326603498 2.2087739654991183 3.973119259041984 2.2189376801454608" fill="#c84449" fill-rule="nonzero"></path></g><g clip-path="url(#SvgjsClipPath1002)"><g clip-path="url(#ada26f880-6a26-40ba-b3c2-5ba1c77306896efb1632-d4e9-46fb-a2ea-387f9b3dd3d4)"><path d=" M 1.165004153039174 -0.1785241772572883 C 1.1430247571389902 -0.1785241772572883 1.119973798716015 -0.18058899581082133 1.0959007345020695 -0.18468154036902162 C 0.7977920406614403 -0.23557663880730528 0.6231603206009533 -0.26895168999794583 0.6214334563815314 -0.2692978871206939 L 0.6259834757090773 -0.29313191046417075 C 0.6277144613228176 -0.29279395613005965 0.8021401116673831 -0.25947660445987686 1.0999932790602698 -0.20858974881023018 C 1.1865260741700117 -0.19383515715025323 1.258316641802732 -0.207378058880612 1.313390834079903 -0.24880631456946345 C 1.40544629757634 -0.3181487739770368 1.4203080454885963 -0.44305175019135534 1.4204358087124676 -0.44427992569824726 L 1.6778457336586072 -2.073442371407445 L 1.7018157630145923 -2.0696465672401714 L 1.444471780377547 -0.44106111673555404 C 1.4439483632991068 -0.4360618654272994 1.4283200360436228 -0.3049809191296551 1.3279929341500978 -0.22942339708989046 C 1.2829955509814868 -0.19555377858103817 1.2283664692907061 -0.1785241772572883 1.165004153039174 -0.1785241772572883" fill="#c84449" transform="matrix(1,0,0,1,0,0)" fill-rule="nonzero"></path></g><g clip-path="url(#ada26f880-6a26-40ba-b3c2-5ba1c77306896efb1632-d4e9-46fb-a2ea-387f9b3dd3d4)"><path d=" M 1.919128642636733 -0.09499999999999975 C 1.900627703541304 -0.09499999999999975 1.8813807920742391 -0.09638890988531035 1.8613837868412202 -0.09915436547297651 C 1.56172957013118 -0.1405949853447832 1.2594500252403003 -0.19335707540931546 1.2564414073878467 -0.193864006910482 L 1.2606040156494602 -0.217792822323283 C 1.263624997684869 -0.21724467687893156 1.5654800389609504 -0.16455677191213125 1.8647097520561926 -0.12317797295510102 C 1.9516629293864143 -0.11115998712256103 2.0230125078270627 -0.12694904875646373 2.076747246950744 -0.17016186818519508 C 2.1665318221777268 -0.2423686966440768 2.17743703154429 -0.36767144810728336 2.177519459430659 -0.36891198779713075 L 2.393785504895919 -2.07306320313015 L 2.417854447715546 -2.0700092499401936 L 2.2016502231650628 -0.36644739399470994 C 2.2012834190707222 -0.3614687496580471 2.189809457288215 -0.22997978532287844 2.091934585014156 -0.15124054686928634 C 2.045395800370452 -0.11383889342954001 1.9874613604362912 -0.09499999999999975 1.919128642636733 -0.09499999999999975" fill="#c84449" transform="matrix(1,0,0,1,0,0)" fill-rule="nonzero"></path></g><g clip-path="url(#ada26f880-6a26-40ba-b3c2-5ba1c77306896efb1632-d4e9-46fb-a2ea-387f9b3dd3d4)"><path d=" M 2.722726349632718 -0.12394867369264717 C 2.716461830268705 -0.12394867369264717 2.710176703933101 -0.1240723155222001 2.7037432074020327 -0.12432372057562424 C 2.4015172406372924 -0.13675384584000705 2.1034332751625735 -0.15652829577983085 2.1004617498589866 -0.15670963712984176 L 2.102077336431811 -0.18090222177902193 C 2.105048861735398 -0.18072088042901102 2.402827844030553 -0.1610000086153267 2.704748827615729 -0.14857812613958088 C 2.7924520987119053 -0.14475347221207824 2.861782193936523 -0.1674870832725346 2.911098798350848 -0.21554254102542036 C 2.9935184419307976 -0.2958479093200157 2.992508700322783 -0.42198730382986294 2.992483971956872 -0.42324845049130255 L 3.0398470354642617 -2.071888605749397 L 3.064126169394129 -2.0711920901095824 L 3.0167383775208285 -0.42309183750720214 C 3.0168455337731075 -0.4180678578330368 3.0180860734629547 -0.28606784060238266 2.9281902205893746 -0.19833571974597786 C 2.877583619753381 -0.14892844465664723 2.8085461435253714 -0.12394867369264717 2.722726349632718 -0.12394867369264717" fill="#c84449" transform="matrix(1,0,0,1,0,0)" fill-rule="nonzero"></path></g><g clip-path="url(#ada26f880-6a26-40ba-b3c2-5ba1c77306896efb1632-d4e9-46fb-a2ea-387f9b3dd3d4)"><path d=" M 2.9090834365291363 -0.18573249592022112 L 2.9071175314392455 -0.20990035220349057 C 2.9112430471519932 -0.21024242793192038 3.322925004225579 -0.24423568827032538 3.622154717320821 -0.2852064691898313 C 3.7089924956101266 -0.2971008131928181 3.7733851604412663 -0.33153506272329514 3.813453356005036 -0.38750359756756514 C 3.88038067834201 -0.48106749138454763 3.857197835300845 -0.6050184255113091 3.8569546730360575 -0.6062713293841118 L 3.6354462139977555 -2.069716630943585 L 3.659420364748059 -2.073355822126758 L 3.8808546386886293 -0.6104215734627698 C 3.8818478947193706 -0.6054923858579284 3.906320734182204 -0.4757632568967287 3.833297869648273 -0.3735567991940001 C 3.789186586258124 -0.3118141909096106 3.7192588888573344 -0.2740251264039322 3.6253735262835147 -0.26117461891906957 C 3.3255338468291447 -0.2201214101131952 2.9132419233964315 -0.18606220746569546 2.9090834365291363 -0.18573249592022112" fill="#c84449" transform="matrix(1,0,0,1,0,0)" fill-rule="nonzero"></path></g><g clip-path="url(#ada26f880-6a26-40ba-b3c2-5ba1c77306896efb1632-d4e9-46fb-a2ea-387f9b3dd3d4)"><path d=" M 1.1566995434875387 -0.6411795392612081 L 1.1330344973111175 -0.5274414202555142 L 0.883661291285915 -0.5793338961188577 L 0.8657826827325688 -0.6341649261312412 C 0.9562926233595949 -0.7196137945352361 1.0307744614822494 -0.8346707597228273 1.0892735324380352 -0.9793028505394674 L 1.148963686351847 -0.9668727252750846 C 1.0961356539782199 -0.8341720710102973 1.0285118160014317 -0.7216085493853561 0.9461251435760298 -0.6291533106400313 L 1.086949066042441 -0.5998460756416804 L 1.098085073490837 -0.6533788664437588 Z" fill="#382d5e" transform="matrix(1,0,0,1,0,0)" fill-rule="nonzero"></path></g><g clip-path="url(#ada26f880-6a26-40ba-b3c2-5ba1c77306896efb1632-d4e9-46fb-a2ea-387f9b3dd3d4)"><path d=" M 1.355379599396061 -1.3806318650851588 L 1.3492634502275116 -1.388083346012879 C 1.3148910216118113 -1.4302122387358633 1.252798094810355 -1.4365550645919263 1.2106650806930523 -1.4021455434273598 L 1.1603222490934382 -1.3541354210119767 L 1.1333065093361339 -1.418247831029463 C 1.1083926806812288 -1.4666082719619127 1.0489168392719752 -1.4855502002494139 1.00059761228271 -1.4606157646229163 L 0.9920086265231033 -1.4562388438567444 C 0.9436481855906538 -1.4313167724132025 0.9246403149940576 -1.3718780235528147 0.9495829934091919 -1.3235093398317284 L 1.095414409972495 -1.042199449233017 L 1.3413544945304459 -1.2419964030018336 C 1.3835163584079777 -1.2763935599834444 1.3897932419549455 -1.3384823653905822 1.355379599396061 -1.3806318650851588" fill="#382d5e" transform="matrix(1,0,0,1,0,0)" fill-rule="nonzero"></path></g><g clip-path="url(#ada26f880-6a26-40ba-b3c2-5ba1c77306896efb1632-d4e9-46fb-a2ea-387f9b3dd3d4)"><path d=" M 1.1603222490934382 -1.3541354210119767 L 1.1333106307304524 -1.418247831029463 C 1.1083926806812288 -1.4666082719619127 1.0489209606662937 -1.4855502002494139 1.0006017336770283 -1.460619886017235 L 0.9920127479174217 -1.4562388438567444 C 0.9436481855906537 -1.4313167724132025 0.9246403149940576 -1.371878023552815 0.9495829934091919 -1.3235093398317284 L 1.0954144099724947 -1.042199449233017 L 1.1603222490934382 -1.3541354210119767" fill="#c84449" transform="matrix(1,0,0,1,0,0)" fill-rule="nonzero"></path></g><g clip-path="url(#ada26f880-6a26-40ba-b3c2-5ba1c77306896efb1632-d4e9-46fb-a2ea-387f9b3dd3d4)"><path d=" M 1.7151237452688006 -0.8976085723595615 C 1.7355493755109364 -0.895914679294687 1.7501885681299971 -0.8938168895866065 1.7590330803373466 -0.8913234460239567 C 1.7692211670925038 -0.8880840300896713 1.7788734725862652 -0.8824212342961495 1.7879405400868098 -0.8743556656149833 C 1.811193446831388 -0.8901694556147965 1.8358435062499137 -0.8970439413379367 1.8617835620901078 -0.8949090590809903 C 1.8898214076383824 -0.8926010782626699 1.914104662962568 -0.8804965431494429 1.934608599696754 -0.8586243035015384 C 1.9560604571241782 -0.835952513355859 1.9656591844918003 -0.8108037652248032 1.9633759320393904 -0.7831038740106397 L 1.9602065798085184 -0.7447707854549288 L 1.988755478252278 -0.742421590693424 L 1.9846546909054408 -0.6925939333836137 C 1.9836037353542417 -0.6923384069358709 1.9740173721695748 -0.6924373203995133 1.95592445111167 -0.6928577026199929 L 1.9432305566109078 -0.53878761881415 C 1.9409266971869061 -0.5108074727863334 1.9273096103588154 -0.4873361321428784 1.9024452384357315 -0.46849311731901966 C 1.8786318220638467 -0.4502600688542884 1.8526917662236528 -0.44229753503108293 1.8246580420696965 -0.44460551584940333 C 1.7966160751271034 -0.44690937527340546 1.7721185072983596 -0.45920761591959813 1.7510911534857332 -0.4815002377879827 C 1.730142106165157 -0.5037557671075008 1.7208071480339147 -0.5289251222101488 1.7231110074579166 -0.5569135110266021 L 1.743256382886399 -0.8012338876174103 C 1.7442290319455482 -0.8129839828192522 1.7475797255264314 -0.8243631525324358 1.75338264872678 -0.8354332176717367 C 1.7487872940617313 -0.8389446456310385 1.7444639514216989 -0.8413597827016381 1.7403961352294093 -0.8427280856153567 L 1.71079628123445 -0.8451720724461853 Z M 1.9029686555141718 -0.6972140164145728 C 1.8820649435310985 -0.7013848674648233 1.861738226752605 -0.7127887655439173 1.8420255977275577 -0.7314792887779942 C 1.829731478475683 -0.7429532505605014 1.8143339493020312 -0.7609142870002163 1.7957835534747808 -0.7854200976175971 L 1.7765737345565817 -0.5525159832888382 C 1.7755557501599297 -0.5400776152358184 1.780571487045458 -0.528331641428295 1.7917239800711278 -0.5173151544151331 C 1.8028146521820212 -0.5062945460076531 1.815310719755499 -0.5002278535709255 1.8291503618767846 -0.4990944701333573 C 1.8429900039980702 -0.4979446011185156 1.8563804141386469 -0.5018805326926152 1.8693380778757887 -0.5109269932215679 C 1.8822751346413382 -0.5199652109618831 1.8892444124338024 -0.5307179287386654 1.8902706396190911 -0.5431604181860032 Z M 1.8253133437663267 -0.8330345661784111 L 1.88686224651775 -0.7613552761922884 C 1.8919233187407813 -0.7553009479385158 1.8987236193661898 -0.751216646168952 1.90725078421102 -0.7491394634324637 L 1.9103665583157525 -0.7869120423608684 C 1.9113804213180863 -0.7991484620922851 1.9062534067859602 -0.8108243721963952 1.8949813933250559 -0.8220098363766126 C 1.883692894286878 -0.8331293582477348 1.8711308844043055 -0.8392825999651496 1.8572953636773382 -0.8404242261913546 C 1.84655913147783 -0.8413062045754984 1.8358929629817349 -0.8388828247162621 1.825313343766327 -0.8330345661784109" fill="#382d5e" transform="matrix(1,0,0,1,0,0)" fill-rule="nonzero"></path></g><g clip-path="url(#ada26f880-6a26-40ba-b3c2-5ba1c77306896efb1632-d4e9-46fb-a2ea-387f9b3dd3d4)"><path d=" M 2.0798012001407 -1.3256277365114013 L 2.0728195581652806 -1.3322714241527094 C 2.0335344275220124 -1.3698667831254214 1.9711365175409925 -1.368556179732161 1.9335246729910065 -1.329196863991161 L 1.8894504821497233 -1.275371454192474 L 1.854789555931733 -1.3356880600426873 C 1.8241263822026188 -1.3806689576340245 1.7627835491671169 -1.392171769176761 1.7178892008564663 -1.3615044740533286 L 1.7099060600616687 -1.3560972047075492 C 1.6649581336248784 -1.3254463951613902 1.6533811369844107 -1.2641241690974805 1.6840649176851168 -1.219172121266372 L 1.8632919924106526 -0.9578303861404507 L 2.0828757603022483 -1.1863246085484904 C 2.1204999690351896 -1.2256344675576694 2.1191151805441972 -1.2880282561443708 2.0798012001407 -1.3256277365114013" fill="#382d5e" transform="matrix(1,0,0,1,0,0)" fill-rule="nonzero"></path></g><g clip-path="url(#ada26f880-6a26-40ba-b3c2-5ba1c77306896efb1632-d4e9-46fb-a2ea-387f9b3dd3d4)"><path d=" M 1.8894504821497236 -1.2753673327981556 L 1.8547895559317331 -1.3356839386483688 C 1.8241263822026188 -1.3806648362397063 1.7627835491671169 -1.3921676477824425 1.7178892008564666 -1.36150035265901 L 1.709906060061669 -1.3560930833132305 C 1.6649581336248789 -1.325442273767072 1.653381136984411 -1.264120047703162 1.6840649176851172 -1.2191679998720535 L 1.8632919924106528 -0.9578262647461322 C 1.8632919924106528 -0.9578262647461322 1.8863264652563543 -1.2375329329549745 1.8894504821497236 -1.2753673327981556" fill="#c84449" transform="matrix(1,0,0,1,0,0)" fill-rule="nonzero"></path></g><g clip-path="url(#SvgjsClipPath10006efb1632-d4e9-46fb-a2ea-387f9b3dd3d4)"><path d=" M 2.5882707770872635 -0.7391971797836228 L 2.611622597295484 -0.5580165641511519 L 2.655667938376538 -0.7352653696038414 L 2.668003271571597 -0.7872485161421903 L 2.6792423138779538 -0.8325055471528624 L 2.654188357816222 -0.8339727635302234 L 2.6572587965834518 -0.8864999341186051 L 2.773222468521097 -0.8797202404647888 L 2.7701520297538673 -0.8271971912707257 L 2.732169259715223 -0.8294227442026774 L 2.638053099059571 -0.45032865200491234 L 2.57303398229203 -0.4541244561721858 L 2.5230991687299404 -0.8416261927795468 L 2.485141127057206 -0.8438517457114985 L 2.4882115658244364 -0.8963789162998801 L 2.6042082089166296 -0.8896033440403823 L 2.6011377701494 -0.8370679306633637 L 2.576030235961528 -0.8385433898293615 L 2.5816765461777766 -0.7922972241822661 Z" fill="#382d5e" transform="matrix(1,0,0,1,0,0)" fill-rule="nonzero"></path></g><g clip-path="url(#bda26f880-6a26-40ba-b3c2-5ba1c77306896efb1632-d4e9-46fb-a2ea-387f9b3dd3d4)"><path d=" M 2.842040715151246 -1.323628860266963 L 2.8349024601917265 -1.3301076921355337 C 2.7947435939529512 -1.3667551304150074 2.7323910193094343 -1.3639608250671122 2.6957229740583686 -1.32371540954765 L 2.652951143821709 -1.2688637725636744 L 2.6168600937752236 -1.3283148856070173 C 2.585137721706273 -1.3725621750096741 2.5235311194343915 -1.382601891569368 2.47937450070674 -1.3508795195004175 L 2.471531487318769 -1.345274423227354 C 2.427329533253615 -1.3135520511584033 2.417211510201871 -1.2519784200410693 2.4489668534253686 -1.207776465975915 L 2.6343718982342295 -0.9507745590672998 L 2.848441240527767 -1.1844370099506498 C 2.8851216499617878 -1.2246370901326094 2.882244916727524 -1.2869814219874895 2.842040715151246 -1.323628860266963" fill="#382d5e" transform="matrix(1,0,0,1,0,0)" fill-rule="nonzero"></path></g><g clip-path="url(#bda26f880-6a26-40ba-b3c2-5ba1c77306896efb1632-d4e9-46fb-a2ea-387f9b3dd3d4)"><path d=" M 2.652947022427391 -1.268859651169356 L 2.6168559723809053 -1.3283107642126988 C 2.585137721706274 -1.3725580536153559 2.5235311194343923 -1.3825977701750498 2.4793745007067405 -1.3508753981060995 L 2.4715273659244508 -1.3452703018330354 C 2.4273254118592966 -1.313547929764085 2.4172073888075527 -1.251974298646751 2.4489627320310507 -1.2077723445815964 L 2.6343677768399116 -0.9507704376729813 L 2.652947022427391 -1.268859651169356" fill="#c84449" transform="matrix(1,0,0,1,0,0)" fill-rule="nonzero"></path></g><g clip-path="url(#bda26f880-6a26-40ba-b3c2-5ba1c77306896efb1632-d4e9-46fb-a2ea-387f9b3dd3d4)"><path d=" M 3.4380602759052206 -0.9828183998930875 C 3.47025660832079 -0.9882050622672747 3.500965117387407 -0.9819281787203069 3.530128103584613 -0.9640866627158264 C 3.556608062080521 -0.9478524904955332 3.578129983211359 -0.9245789767793628 3.5945867107248475 -0.8942455145957231 L 3.5461726916662584 -0.8675223938350274 C 3.535659014759945 -0.8873669074782644 3.522161448367089 -0.9026696445825926 3.505832484077472 -0.9136655246241621 C 3.487117232477485 -0.9262398986896898 3.4675323666763083 -0.9308352533547386 3.447073765279625 -0.9274103746761237 C 3.4214922707451345 -0.9231241245849573 3.401173796755278 -0.9094369740534536 3.3860194298464132 -0.8862500096179702 C 3.370898034092096 -0.863120744702945 3.3654742791690433 -0.8388086396185304 3.369715193922707 -0.8134373361942795 C 3.373927258916142 -0.7883586517666372 3.3852528505031856 -0.7692271393404884 3.403724939838386 -0.7561911691112964 C 3.422139329653128 -0.7431510774877859 3.4441681822851327 -0.7387535497500219 3.4696837345105287 -0.7430233142639147 C 3.481483286444192 -0.744993340748124 3.490476168847004 -0.748039051149443 3.4966706245076034 -0.7521934166224198 C 3.50289805132275 -0.7563148109408493 3.5099786067618117 -0.7635561007583296 3.5179535047679726 -0.7738554651600842 L 3.563181686018416 -0.7421289716968156 L 3.4576739914666255 -0.6034687812475796 L 3.5783731454761463 -0.623688341773794 L 3.569347291918786 -0.6775013873895255 L 3.6231685803231546 -0.6865107553696119 L 3.6414552069140256 -0.5773844766062404 L 3.3663480147645504 -0.5312949239432454 L 3.3605327273812464 -0.5659311217953253 L 3.4507995057434853 -0.6854062216922729 C 3.4158377177402497 -0.6861192229093613 3.3860977363384634 -0.6973953577645837 3.3615136192290325 -0.7193088113556723 C 3.3369459876968754 -0.7412181435524428 3.3217462854505087 -0.7696804927155154 3.3159021483069755 -0.8045310030721537 C 3.3091018476815672 -0.8451308585030008 3.317707319018447 -0.8833567908064328 3.3416897125573874 -0.9190521869983492 C 3.36569271306792 -0.9548547394425446 3.3978189817800764 -0.9760757987881372 3.4380602759052206 -0.9828183998930875" fill="#382d5e" transform="matrix(1,0,0,1,0,0)" fill-rule="nonzero"></path></g><g clip-path="url(#bda26f880-6a26-40ba-b3c2-5ba1c77306896efb1632-d4e9-46fb-a2ea-387f9b3dd3d4)"><path d=" M 3.542166696388745 -1.453650608224771 L 3.533767294767786 -1.4583819689023279 C 3.4864660521751727 -1.4851792747607553 3.426293695126105 -1.4685659342631667 3.3995169962392695 -1.4211822637841849 L 3.370020177102271 -1.358186751626993 L 3.3215855510720895 -1.4081256865834009 C 3.2808043542912317 -1.4441961296582941 3.2185300861397645 -1.4402931692387417 3.1825338281626028 -1.3995325794294757 L 3.176133302786082 -1.3923283821608612 C 3.140083466682781 -1.3515677923515952 3.143932848976194 -1.2892894028058102 3.1847181671513702 -1.2532354453081904 L 3.42265862533725 -1.043955163212668 L 3.579391129872799 -1.3193797027246625 C 3.606188435731226 -1.3667386448377337 3.589533881290453 -1.426865666549299 3.542166696388745 -1.453650608224771" fill="#382d5e" transform="matrix(1,0,0,1,0,0)" fill-rule="nonzero"></path></g><g clip-path="url(#bda26f880-6a26-40ba-b3c2-5ba1c77306896efb1632-d4e9-46fb-a2ea-387f9b3dd3d4)"><path d=" M 3.370020177102271 -1.3581867516269928 L 3.3215855510720895 -1.4081256865834006 C 3.2808043542912313 -1.4441961296582941 3.2185300861397645 -1.4402931692387415 3.1825338281626028 -1.3995325794294757 L 3.176133302786082 -1.3923283821608612 C 3.1400834666827806 -1.3515677923515952 3.1439328489761937 -1.2892935242001284 3.1847181671513702 -1.2532354453081902 L 3.42265862533725 -1.043955163212668 C 3.42265862533725 -1.043955163212668 3.376284696466283 -1.3207273986667887 3.370020177102271 -1.3581867516269928" fill="#c84449" transform="matrix(1,0,0,1,0,0)" fill-rule="nonzero"></path></g></g></g><defs><clipPath id="SvgjsClipPath1002"><path d=" M 0.6214334563815314 -2.0734423714074453 h 3.2641461336236564 v 1.9784423714074453 h -3.2641461336236564 Z"></path></clipPath><clipPath id="ada26f880-6a26-40ba-b3c2-5ba1c77306896efb1632-d4e9-46fb-a2ea-387f9b3dd3d4"><path d=" M 0.6214334563815315 -0.09499999999999975 L 3.885577756577549 -0.09499999999999975 L 3.885577756577549 -2.073438250013127 L 0.6214334563815315 -2.073438250013127 Z"></path></clipPath><clipPath id="SvgjsClipPath10006efb1632-d4e9-46fb-a2ea-387f9b3dd3d4"><path d=" M 0.6214334563815314 -2.0734423714074453 L 3.8855795900051877 -2.0734423714074453 L 3.8855795900051877 -0.09499999999999997 L 0.6214334563815314 -0.09499999999999997 Z"></path></clipPath><clipPath id="bda26f880-6a26-40ba-b3c2-5ba1c77306896efb1632-d4e9-46fb-a2ea-387f9b3dd3d4"><path d=" M 0.6214334563815315 -0.09499999999999975 L 3.885577756577549 -0.09499999999999975 L 3.885577756577549 -2.073438250013127 L 0.6214334563815315 -2.073438250013127 Z"></path></clipPath></defs></svg>